G04 #@! TF.FileFunction,Copper,L2,Bot,Signal*
%FSLAX46Y46*%
G04 Gerber Fmt 4.6, Leading zero omitted, Abs format (unit mm)*
G04 Created by KiCad (PCBNEW 4.0.6) date 09/30/17 10:47:32*
%MOMM*%
%LPD*%
G01*
G04 APERTURE LIST*
%ADD10C,0.100000*%
%ADD11R,1.700000X1.700000*%
%ADD12O,1.700000X1.700000*%
%ADD13C,0.600000*%
%ADD14C,0.250000*%
%ADD15C,0.254000*%
G04 APERTURE END LIST*
D10*
D11*
X135382000Y-107442000D03*
D12*
X137922000Y-107442000D03*
X135382000Y-109982000D03*
X137922000Y-109982000D03*
X135382000Y-112522000D03*
X137922000Y-112522000D03*
D11*
X103378000Y-98298000D03*
D12*
X105918000Y-98298000D03*
X108458000Y-98298000D03*
X110998000Y-98298000D03*
X113538000Y-98298000D03*
X116078000Y-98298000D03*
X118618000Y-98298000D03*
X121158000Y-98298000D03*
X123698000Y-98298000D03*
X126238000Y-98298000D03*
X128778000Y-98298000D03*
X131318000Y-98298000D03*
X133858000Y-98298000D03*
X136398000Y-98298000D03*
X138938000Y-98298000D03*
X141478000Y-98298000D03*
D11*
X98298000Y-119634000D03*
D12*
X98298000Y-117094000D03*
D11*
X114300000Y-128778000D03*
D12*
X116840000Y-128778000D03*
D11*
X104775000Y-128778000D03*
D12*
X107315000Y-128778000D03*
D11*
X104775000Y-90170000D03*
D12*
X107315000Y-90170000D03*
D11*
X114300000Y-90170000D03*
D12*
X116840000Y-90170000D03*
D11*
X98298000Y-81026000D03*
D12*
X98298000Y-78486000D03*
D11*
X103378000Y-59690000D03*
D12*
X105918000Y-59690000D03*
X108458000Y-59690000D03*
X110998000Y-59690000D03*
X113538000Y-59690000D03*
X116078000Y-59690000D03*
X118618000Y-59690000D03*
X121158000Y-59690000D03*
X123698000Y-59690000D03*
X126238000Y-59690000D03*
X128778000Y-59690000D03*
X131318000Y-59690000D03*
X133858000Y-59690000D03*
X136398000Y-59690000D03*
X138938000Y-59690000D03*
X141478000Y-59690000D03*
D11*
X135382000Y-68834000D03*
D12*
X137922000Y-68834000D03*
X135382000Y-71374000D03*
X137922000Y-71374000D03*
X135382000Y-73914000D03*
X137922000Y-73914000D03*
D13*
X115316000Y-108712000D03*
X115316000Y-105918000D03*
X115824000Y-115824000D03*
X115824000Y-113030000D03*
X115824000Y-74422000D03*
X115824000Y-77216000D03*
X115316000Y-67310000D03*
X115316000Y-70104000D03*
X100330000Y-103632000D03*
X101092000Y-117856000D03*
X127254000Y-105410000D03*
X103886000Y-103124000D03*
X103886000Y-64516000D03*
X127254000Y-66802000D03*
X101092000Y-79248000D03*
X100330000Y-65024000D03*
X101854000Y-96520000D03*
X101854000Y-57912000D03*
X126111000Y-103886000D03*
X126111000Y-65278000D03*
X129794000Y-110998000D03*
X129794000Y-72390000D03*
X129540000Y-112014000D03*
X129540000Y-73406000D03*
X129032000Y-113538000D03*
X129032000Y-74930000D03*
X121412000Y-113284000D03*
X110744000Y-120142000D03*
X110744000Y-81534000D03*
X121412000Y-74676000D03*
X109474000Y-115062000D03*
X109474000Y-76454000D03*
X128016000Y-106934000D03*
X121666000Y-106934000D03*
X119888000Y-103378000D03*
X119888000Y-64770000D03*
X121666000Y-68326000D03*
X128016000Y-68326000D03*
X129540000Y-108458000D03*
X119380000Y-108458000D03*
X119380000Y-69850000D03*
X129540000Y-69850000D03*
X124460000Y-104648000D03*
X127000000Y-104648000D03*
X119380000Y-102616000D03*
X119380000Y-64008000D03*
X127000000Y-66040000D03*
X124460000Y-66040000D03*
X134112000Y-110744000D03*
X130048000Y-113538000D03*
X130048000Y-74930000D03*
X134112000Y-72136000D03*
D14*
X115316000Y-108585000D02*
X115570000Y-108331000D01*
X115570000Y-108331000D02*
X115570000Y-106045000D01*
X115570000Y-106045000D02*
X115316000Y-105791000D01*
X115824000Y-115697000D02*
X116078000Y-115443000D01*
X116078000Y-115443000D02*
X116078000Y-113157000D01*
X116078000Y-113157000D02*
X115824000Y-112903000D01*
X116078000Y-74549000D02*
X115824000Y-74295000D01*
X116078000Y-76835000D02*
X116078000Y-74549000D01*
X115824000Y-77089000D02*
X116078000Y-76835000D01*
X115570000Y-67437000D02*
X115316000Y-67183000D01*
X115570000Y-69723000D02*
X115570000Y-67437000D01*
X115316000Y-69977000D02*
X115570000Y-69723000D01*
X100330000Y-103505000D02*
X101092000Y-104267000D01*
X101092000Y-104267000D02*
X101092000Y-117729000D01*
X104902000Y-104013000D02*
X120396000Y-104013000D01*
X120396000Y-104013000D02*
X121666000Y-105283000D01*
X127254000Y-105283000D02*
X121666000Y-105283000D01*
X104902000Y-104013000D02*
X103886000Y-102997000D01*
X104902000Y-65405000D02*
X103886000Y-64389000D01*
X127254000Y-66675000D02*
X121666000Y-66675000D01*
X120396000Y-65405000D02*
X121666000Y-66675000D01*
X104902000Y-65405000D02*
X120396000Y-65405000D01*
X101092000Y-65659000D02*
X101092000Y-79121000D01*
X100330000Y-64897000D02*
X101092000Y-65659000D01*
X108458000Y-97155000D02*
X107696000Y-96393000D01*
X107696000Y-96393000D02*
X101854000Y-96393000D01*
X108458000Y-98171000D02*
X108458000Y-97155000D01*
X108458000Y-59563000D02*
X108458000Y-58547000D01*
X107696000Y-57785000D02*
X101854000Y-57785000D01*
X108458000Y-58547000D02*
X107696000Y-57785000D01*
X130683000Y-100203000D02*
X130683000Y-101473000D01*
X130683000Y-101473000D02*
X129667000Y-102489000D01*
X129667000Y-102489000D02*
X129667000Y-103251000D01*
X129667000Y-103251000D02*
X129032000Y-103886000D01*
X129032000Y-103886000D02*
X126111000Y-103886000D01*
X128778000Y-98298000D02*
X130683000Y-100203000D01*
X128778000Y-59690000D02*
X130683000Y-61595000D01*
X129032000Y-65278000D02*
X126111000Y-65278000D01*
X129667000Y-64643000D02*
X129032000Y-65278000D01*
X129667000Y-63881000D02*
X129667000Y-64643000D01*
X130683000Y-62865000D02*
X129667000Y-63881000D01*
X130683000Y-61595000D02*
X130683000Y-62865000D01*
X130302000Y-109855000D02*
X130302000Y-102743000D01*
X130302000Y-102743000D02*
X131318000Y-101727000D01*
X131318000Y-101727000D02*
X131318000Y-98171000D01*
X130302000Y-110363000D02*
X129794000Y-110871000D01*
X130302000Y-109855000D02*
X130302000Y-110363000D01*
X130302000Y-71247000D02*
X130302000Y-71755000D01*
X130302000Y-71755000D02*
X129794000Y-72263000D01*
X131318000Y-63119000D02*
X131318000Y-59563000D01*
X130302000Y-64135000D02*
X131318000Y-63119000D01*
X130302000Y-71247000D02*
X130302000Y-64135000D01*
X133858000Y-100074602D02*
X130810000Y-103122602D01*
X130810000Y-103122602D02*
X130810000Y-110871000D01*
X130810000Y-110871000D02*
X129794000Y-111887000D01*
X129794000Y-111887000D02*
X129540000Y-111887000D01*
X133858000Y-98171000D02*
X133858000Y-100074602D01*
X133858000Y-59563000D02*
X133858000Y-61466602D01*
X129794000Y-73279000D02*
X129540000Y-73279000D01*
X130810000Y-72263000D02*
X129794000Y-73279000D01*
X130810000Y-64514602D02*
X130810000Y-72263000D01*
X133858000Y-61466602D02*
X130810000Y-64514602D01*
X131318000Y-103251000D02*
X131318000Y-111125000D01*
X131318000Y-111125000D02*
X129032000Y-113411000D01*
X136398000Y-98171000D02*
X131318000Y-103251000D01*
X136398000Y-59563000D02*
X131318000Y-64643000D01*
X131318000Y-72517000D02*
X129032000Y-74803000D01*
X131318000Y-64643000D02*
X131318000Y-72517000D01*
X112014000Y-126365000D02*
X114300000Y-128651000D01*
X101854000Y-126365000D02*
X112014000Y-126365000D01*
X100838000Y-125349000D02*
X101854000Y-126365000D01*
X100838000Y-118999000D02*
X100838000Y-125349000D01*
X98806000Y-116967000D02*
X100838000Y-118999000D01*
X98298000Y-116967000D02*
X98806000Y-116967000D01*
X98298000Y-78359000D02*
X98806000Y-78359000D01*
X98806000Y-78359000D02*
X100838000Y-80391000D01*
X100838000Y-80391000D02*
X100838000Y-86741000D01*
X100838000Y-86741000D02*
X101854000Y-87757000D01*
X101854000Y-87757000D02*
X112014000Y-87757000D01*
X112014000Y-87757000D02*
X114300000Y-90043000D01*
X121412000Y-113157000D02*
X114554000Y-120015000D01*
X114554000Y-120015000D02*
X110744000Y-120015000D01*
X114554000Y-81407000D02*
X110744000Y-81407000D01*
X121412000Y-74549000D02*
X114554000Y-81407000D01*
X109474000Y-114935000D02*
X109474000Y-121285000D01*
X109474000Y-121285000D02*
X116840000Y-128651000D01*
X109474000Y-82677000D02*
X116840000Y-90043000D01*
X109474000Y-76327000D02*
X109474000Y-82677000D01*
X110998000Y-101219000D02*
X110998000Y-98171000D01*
X128016000Y-106807000D02*
X121666000Y-106807000D01*
X119888000Y-103251000D02*
X111506000Y-103251000D01*
X111506000Y-103251000D02*
X110998000Y-102743000D01*
X110998000Y-102743000D02*
X110998000Y-101219000D01*
X110998000Y-64135000D02*
X110998000Y-62611000D01*
X111506000Y-64643000D02*
X110998000Y-64135000D01*
X119888000Y-64643000D02*
X111506000Y-64643000D01*
X128016000Y-68199000D02*
X121666000Y-68199000D01*
X110998000Y-62611000D02*
X110998000Y-59563000D01*
X129540000Y-108331000D02*
X119380000Y-108331000D01*
X129540000Y-69723000D02*
X119380000Y-69723000D01*
X116078000Y-100711000D02*
X116078000Y-98171000D01*
X127000000Y-104521000D02*
X124460000Y-104521000D01*
X119380000Y-102489000D02*
X116586000Y-102489000D01*
X116586000Y-102489000D02*
X116332000Y-102235000D01*
X116332000Y-102235000D02*
X116078000Y-101981000D01*
X116078000Y-101981000D02*
X116078000Y-100711000D01*
X116078000Y-63373000D02*
X116078000Y-62103000D01*
X116332000Y-63627000D02*
X116078000Y-63373000D01*
X116586000Y-63881000D02*
X116332000Y-63627000D01*
X119380000Y-63881000D02*
X116586000Y-63881000D01*
X127000000Y-65913000D02*
X124460000Y-65913000D01*
X116078000Y-62103000D02*
X116078000Y-59563000D01*
X134112000Y-110617000D02*
X132080000Y-110617000D01*
X132080000Y-110617000D02*
X131826000Y-110871000D01*
X131826000Y-110871000D02*
X131826000Y-111633000D01*
X131826000Y-111633000D02*
X130048000Y-113411000D01*
X131826000Y-73025000D02*
X130048000Y-74803000D01*
X131826000Y-72263000D02*
X131826000Y-73025000D01*
X132080000Y-72009000D02*
X131826000Y-72263000D01*
X134112000Y-72009000D02*
X132080000Y-72009000D01*
D15*
G36*
X100918838Y-58097167D02*
X101060883Y-58440943D01*
X101323673Y-58704192D01*
X101667201Y-58846838D01*
X101893000Y-58847035D01*
X101893000Y-59404250D01*
X102051750Y-59563000D01*
X103251000Y-59563000D01*
X103251000Y-59543000D01*
X103505000Y-59543000D01*
X103505000Y-59563000D01*
X103525000Y-59563000D01*
X103525000Y-59817000D01*
X103505000Y-59817000D01*
X103505000Y-61016250D01*
X103663750Y-61175000D01*
X104354310Y-61175000D01*
X104587699Y-61078327D01*
X104766327Y-60899698D01*
X104838597Y-60725223D01*
X104867946Y-60769147D01*
X105349715Y-61091054D01*
X105918000Y-61204093D01*
X106486285Y-61091054D01*
X106968054Y-60769147D01*
X107188000Y-60439974D01*
X107407946Y-60769147D01*
X107889715Y-61091054D01*
X108458000Y-61204093D01*
X109026285Y-61091054D01*
X109508054Y-60769147D01*
X109728000Y-60439974D01*
X109947946Y-60769147D01*
X110238000Y-60962954D01*
X110238000Y-64135000D01*
X110295852Y-64425839D01*
X110442290Y-64645000D01*
X105216802Y-64645000D01*
X104763794Y-64191992D01*
X104679117Y-63987057D01*
X104416327Y-63723808D01*
X104072799Y-63581162D01*
X103700833Y-63580838D01*
X103357057Y-63722883D01*
X103093808Y-63985673D01*
X102951162Y-64329201D01*
X102950838Y-64701167D01*
X103092883Y-65044943D01*
X103355673Y-65308192D01*
X103699201Y-65450838D01*
X103873188Y-65450990D01*
X104364599Y-65942401D01*
X104611161Y-66107148D01*
X104902000Y-66165000D01*
X120081198Y-66165000D01*
X121128599Y-67212401D01*
X121375160Y-67377148D01*
X121468858Y-67395786D01*
X121137057Y-67532883D01*
X120873808Y-67795673D01*
X120731162Y-68139201D01*
X120730838Y-68511167D01*
X120872883Y-68854943D01*
X120980752Y-68963000D01*
X119682005Y-68963000D01*
X119566799Y-68915162D01*
X119194833Y-68914838D01*
X118851057Y-69056883D01*
X118587808Y-69319673D01*
X118445162Y-69663201D01*
X118444838Y-70035167D01*
X118586883Y-70378943D01*
X118849673Y-70642192D01*
X119193201Y-70784838D01*
X119565167Y-70785162D01*
X119908943Y-70643117D01*
X120069340Y-70483000D01*
X128850759Y-70483000D01*
X129009673Y-70642192D01*
X129353201Y-70784838D01*
X129542000Y-70785002D01*
X129542000Y-71440198D01*
X129469992Y-71512206D01*
X129265057Y-71596883D01*
X129001808Y-71859673D01*
X128859162Y-72203201D01*
X128858838Y-72575167D01*
X128914322Y-72709449D01*
X128747808Y-72875673D01*
X128605162Y-73219201D01*
X128604838Y-73591167D01*
X128746883Y-73934943D01*
X128786035Y-73974163D01*
X128707992Y-74052206D01*
X128503057Y-74136883D01*
X128239808Y-74399673D01*
X128097162Y-74743201D01*
X128096838Y-75115167D01*
X128238883Y-75458943D01*
X128501673Y-75722192D01*
X128845201Y-75864838D01*
X129217167Y-75865162D01*
X129540371Y-75731617D01*
X129861201Y-75864838D01*
X130233167Y-75865162D01*
X130576943Y-75723117D01*
X130840192Y-75460327D01*
X130982838Y-75116799D01*
X130982990Y-74942812D01*
X132363401Y-73562401D01*
X132528148Y-73315839D01*
X132586000Y-73025000D01*
X132586000Y-72769000D01*
X133422759Y-72769000D01*
X133581673Y-72928192D01*
X133925201Y-73070838D01*
X134164473Y-73071046D01*
X133980946Y-73345715D01*
X133867907Y-73914000D01*
X133980946Y-74482285D01*
X134302853Y-74964054D01*
X134784622Y-75285961D01*
X135352907Y-75399000D01*
X135411093Y-75399000D01*
X135979378Y-75285961D01*
X136461147Y-74964054D01*
X136650345Y-74680899D01*
X136650355Y-74680924D01*
X137040642Y-75109183D01*
X137565108Y-75355486D01*
X137795000Y-75234819D01*
X137795000Y-74041000D01*
X138049000Y-74041000D01*
X138049000Y-75234819D01*
X138278892Y-75355486D01*
X138803358Y-75109183D01*
X139193645Y-74680924D01*
X139363476Y-74270890D01*
X139242155Y-74041000D01*
X138049000Y-74041000D01*
X137795000Y-74041000D01*
X137775000Y-74041000D01*
X137775000Y-73787000D01*
X137795000Y-73787000D01*
X137795000Y-73767000D01*
X138049000Y-73767000D01*
X138049000Y-73787000D01*
X139242155Y-73787000D01*
X139363476Y-73557110D01*
X139193645Y-73147076D01*
X138803358Y-72718817D01*
X138660447Y-72651702D01*
X139001147Y-72424054D01*
X139323054Y-71942285D01*
X139436093Y-71374000D01*
X139323054Y-70805715D01*
X139001147Y-70323946D01*
X138671974Y-70104000D01*
X139001147Y-69884054D01*
X139323054Y-69402285D01*
X139436093Y-68834000D01*
X139323054Y-68265715D01*
X139001147Y-67783946D01*
X138519378Y-67462039D01*
X137951093Y-67349000D01*
X137892907Y-67349000D01*
X137324622Y-67462039D01*
X136842853Y-67783946D01*
X136842029Y-67785179D01*
X136835162Y-67748683D01*
X136696090Y-67532559D01*
X136483890Y-67387569D01*
X136232000Y-67336560D01*
X134532000Y-67336560D01*
X134296683Y-67380838D01*
X134080559Y-67519910D01*
X133935569Y-67732110D01*
X133884560Y-67984000D01*
X133884560Y-69684000D01*
X133928838Y-69919317D01*
X134067910Y-70135441D01*
X134280110Y-70280431D01*
X134347541Y-70294086D01*
X134302853Y-70323946D01*
X133980946Y-70805715D01*
X133900159Y-71211860D01*
X133810272Y-71249000D01*
X132080000Y-71249000D01*
X132078000Y-71249398D01*
X132078000Y-64957802D01*
X135925663Y-61110139D01*
X136398000Y-61204093D01*
X136966285Y-61091054D01*
X137448054Y-60769147D01*
X137668000Y-60439974D01*
X137887946Y-60769147D01*
X138369715Y-61091054D01*
X138938000Y-61204093D01*
X139506285Y-61091054D01*
X139988054Y-60769147D01*
X140215702Y-60428447D01*
X140282817Y-60571358D01*
X140711076Y-60961645D01*
X141121110Y-61131476D01*
X141351000Y-61010155D01*
X141351000Y-59817000D01*
X141605000Y-59817000D01*
X141605000Y-61010155D01*
X141834890Y-61131476D01*
X142244924Y-60961645D01*
X142673183Y-60571358D01*
X142919486Y-60046892D01*
X142798819Y-59817000D01*
X141605000Y-59817000D01*
X141351000Y-59817000D01*
X141331000Y-59817000D01*
X141331000Y-59563000D01*
X141351000Y-59563000D01*
X141351000Y-58369845D01*
X141605000Y-58369845D01*
X141605000Y-59563000D01*
X142798819Y-59563000D01*
X142919486Y-59333108D01*
X142673183Y-58808642D01*
X142244924Y-58418355D01*
X141834890Y-58248524D01*
X141605000Y-58369845D01*
X141351000Y-58369845D01*
X141121110Y-58248524D01*
X140711076Y-58418355D01*
X140282817Y-58808642D01*
X140215702Y-58951553D01*
X139988054Y-58610853D01*
X139506285Y-58288946D01*
X138938000Y-58175907D01*
X138369715Y-58288946D01*
X137887946Y-58610853D01*
X137668000Y-58940026D01*
X137448054Y-58610853D01*
X136966285Y-58288946D01*
X136398000Y-58175907D01*
X135829715Y-58288946D01*
X135347946Y-58610853D01*
X135128000Y-58940026D01*
X134908054Y-58610853D01*
X134426285Y-58288946D01*
X133858000Y-58175907D01*
X133289715Y-58288946D01*
X132807946Y-58610853D01*
X132588000Y-58940026D01*
X132368054Y-58610853D01*
X131886285Y-58288946D01*
X131318000Y-58175907D01*
X130749715Y-58288946D01*
X130267946Y-58610853D01*
X130048000Y-58940026D01*
X129828054Y-58610853D01*
X129346285Y-58288946D01*
X128778000Y-58175907D01*
X128209715Y-58288946D01*
X127727946Y-58610853D01*
X127508000Y-58940026D01*
X127288054Y-58610853D01*
X126806285Y-58288946D01*
X126238000Y-58175907D01*
X125669715Y-58288946D01*
X125187946Y-58610853D01*
X124968000Y-58940026D01*
X124748054Y-58610853D01*
X124266285Y-58288946D01*
X123698000Y-58175907D01*
X123129715Y-58288946D01*
X122647946Y-58610853D01*
X122428000Y-58940026D01*
X122208054Y-58610853D01*
X121726285Y-58288946D01*
X121158000Y-58175907D01*
X120589715Y-58288946D01*
X120107946Y-58610853D01*
X119888000Y-58940026D01*
X119668054Y-58610853D01*
X119186285Y-58288946D01*
X118618000Y-58175907D01*
X118049715Y-58288946D01*
X117567946Y-58610853D01*
X117348000Y-58940026D01*
X117128054Y-58610853D01*
X116646285Y-58288946D01*
X116078000Y-58175907D01*
X115509715Y-58288946D01*
X115027946Y-58610853D01*
X114800298Y-58951553D01*
X114733183Y-58808642D01*
X114304924Y-58418355D01*
X113894890Y-58248524D01*
X113665000Y-58369845D01*
X113665000Y-59563000D01*
X113685000Y-59563000D01*
X113685000Y-59817000D01*
X113665000Y-59817000D01*
X113665000Y-61010155D01*
X113894890Y-61131476D01*
X114304924Y-60961645D01*
X114733183Y-60571358D01*
X114800298Y-60428447D01*
X115027946Y-60769147D01*
X115318000Y-60962954D01*
X115318000Y-63373000D01*
X115375852Y-63663839D01*
X115522290Y-63883000D01*
X111820802Y-63883000D01*
X111758000Y-63820198D01*
X111758000Y-60962954D01*
X112048054Y-60769147D01*
X112275702Y-60428447D01*
X112342817Y-60571358D01*
X112771076Y-60961645D01*
X113181110Y-61131476D01*
X113411000Y-61010155D01*
X113411000Y-59817000D01*
X113391000Y-59817000D01*
X113391000Y-59563000D01*
X113411000Y-59563000D01*
X113411000Y-58369845D01*
X113181110Y-58248524D01*
X112771076Y-58418355D01*
X112342817Y-58808642D01*
X112275702Y-58951553D01*
X112048054Y-58610853D01*
X111566285Y-58288946D01*
X110998000Y-58175907D01*
X110429715Y-58288946D01*
X109947946Y-58610853D01*
X109728000Y-58940026D01*
X109508054Y-58610853D01*
X109188188Y-58397126D01*
X109160148Y-58256161D01*
X108995401Y-58009599D01*
X108845802Y-57860000D01*
X172727902Y-57860000D01*
X172724287Y-57860719D01*
X172081929Y-58289929D01*
X171652719Y-58932287D01*
X171502000Y-59690000D01*
X171652719Y-60447713D01*
X172081929Y-61090071D01*
X172724287Y-61519281D01*
X173482000Y-61670000D01*
X174239713Y-61519281D01*
X174882071Y-61090071D01*
X175185000Y-60636706D01*
X175185000Y-89731294D01*
X174882071Y-89277929D01*
X174239713Y-88848719D01*
X173482000Y-88698000D01*
X172724287Y-88848719D01*
X172081929Y-89277929D01*
X171652719Y-89920287D01*
X171502000Y-90678000D01*
X171652719Y-91435713D01*
X172081929Y-92078071D01*
X172724287Y-92507281D01*
X173482000Y-92658000D01*
X174239713Y-92507281D01*
X174882071Y-92078071D01*
X175185000Y-91624706D01*
X175185000Y-93091000D01*
X96595000Y-93091000D01*
X96595000Y-91624706D01*
X96897929Y-92078071D01*
X97540287Y-92507281D01*
X98298000Y-92658000D01*
X99055713Y-92507281D01*
X99698071Y-92078071D01*
X100127281Y-91435713D01*
X100278000Y-90678000D01*
X100127281Y-89920287D01*
X99726182Y-89320000D01*
X103277560Y-89320000D01*
X103277560Y-91020000D01*
X103321838Y-91255317D01*
X103460910Y-91471441D01*
X103673110Y-91616431D01*
X103925000Y-91667440D01*
X105625000Y-91667440D01*
X105860317Y-91623162D01*
X106076441Y-91484090D01*
X106221431Y-91271890D01*
X106235086Y-91204459D01*
X106264946Y-91249147D01*
X106746715Y-91571054D01*
X107315000Y-91684093D01*
X107883285Y-91571054D01*
X108365054Y-91249147D01*
X108686961Y-90767378D01*
X108800000Y-90199093D01*
X108800000Y-90140907D01*
X108686961Y-89572622D01*
X108365054Y-89090853D01*
X107883285Y-88768946D01*
X107315000Y-88655907D01*
X106746715Y-88768946D01*
X106264946Y-89090853D01*
X106237150Y-89132452D01*
X106228162Y-89084683D01*
X106089090Y-88868559D01*
X105876890Y-88723569D01*
X105625000Y-88672560D01*
X103925000Y-88672560D01*
X103689683Y-88716838D01*
X103473559Y-88855910D01*
X103328569Y-89068110D01*
X103277560Y-89320000D01*
X99726182Y-89320000D01*
X99698071Y-89277929D01*
X99055713Y-88848719D01*
X98298000Y-88698000D01*
X97540287Y-88848719D01*
X96897929Y-89277929D01*
X96595000Y-89731294D01*
X96595000Y-81311750D01*
X96813000Y-81311750D01*
X96813000Y-82002310D01*
X96909673Y-82235699D01*
X97088302Y-82414327D01*
X97321691Y-82511000D01*
X98012250Y-82511000D01*
X98171000Y-82352250D01*
X98171000Y-81153000D01*
X98425000Y-81153000D01*
X98425000Y-82352250D01*
X98583750Y-82511000D01*
X99274309Y-82511000D01*
X99507698Y-82414327D01*
X99686327Y-82235699D01*
X99783000Y-82002310D01*
X99783000Y-81311750D01*
X99624250Y-81153000D01*
X98425000Y-81153000D01*
X98171000Y-81153000D01*
X96971750Y-81153000D01*
X96813000Y-81311750D01*
X96595000Y-81311750D01*
X96595000Y-78486000D01*
X96783907Y-78486000D01*
X96896946Y-79054285D01*
X97218853Y-79536054D01*
X97262777Y-79565403D01*
X97088302Y-79637673D01*
X96909673Y-79816301D01*
X96813000Y-80049690D01*
X96813000Y-80740250D01*
X96971750Y-80899000D01*
X98171000Y-80899000D01*
X98171000Y-80879000D01*
X98425000Y-80879000D01*
X98425000Y-80899000D01*
X99624250Y-80899000D01*
X99783000Y-80740250D01*
X99783000Y-80410802D01*
X100078000Y-80705802D01*
X100078000Y-86741000D01*
X100135852Y-87031839D01*
X100300599Y-87278401D01*
X101316599Y-88294401D01*
X101563161Y-88459148D01*
X101854000Y-88517000D01*
X111699198Y-88517000D01*
X112802560Y-89620362D01*
X112802560Y-91020000D01*
X112846838Y-91255317D01*
X112985910Y-91471441D01*
X113198110Y-91616431D01*
X113450000Y-91667440D01*
X115150000Y-91667440D01*
X115385317Y-91623162D01*
X115601441Y-91484090D01*
X115746431Y-91271890D01*
X115760086Y-91204459D01*
X115789946Y-91249147D01*
X116271715Y-91571054D01*
X116840000Y-91684093D01*
X117408285Y-91571054D01*
X117890054Y-91249147D01*
X118211961Y-90767378D01*
X118325000Y-90199093D01*
X118325000Y-90140907D01*
X118211961Y-89572622D01*
X117890054Y-89090853D01*
X117408285Y-88768946D01*
X116840000Y-88655907D01*
X116579521Y-88707719D01*
X110234000Y-82362198D01*
X110234000Y-82334633D01*
X110557201Y-82468838D01*
X110929167Y-82469162D01*
X111272943Y-82327117D01*
X111433340Y-82167000D01*
X114554000Y-82167000D01*
X114844839Y-82109148D01*
X115091401Y-81944401D01*
X121424790Y-75611012D01*
X121597167Y-75611162D01*
X121940943Y-75469117D01*
X122204192Y-75206327D01*
X122346838Y-74862799D01*
X122347162Y-74490833D01*
X122205117Y-74147057D01*
X121942327Y-73883808D01*
X121598799Y-73741162D01*
X121226833Y-73740838D01*
X120883057Y-73882883D01*
X120619808Y-74145673D01*
X120534087Y-74352111D01*
X114239198Y-80647000D01*
X111046005Y-80647000D01*
X110930799Y-80599162D01*
X110558833Y-80598838D01*
X110234000Y-80733056D01*
X110234000Y-77016463D01*
X110266192Y-76984327D01*
X110408838Y-76640799D01*
X110409162Y-76268833D01*
X110267117Y-75925057D01*
X110004327Y-75661808D01*
X109660799Y-75519162D01*
X109288833Y-75518838D01*
X108945057Y-75660883D01*
X108681808Y-75923673D01*
X108539162Y-76267201D01*
X108538838Y-76639167D01*
X108680883Y-76982943D01*
X108714000Y-77016118D01*
X108714000Y-82677000D01*
X108771852Y-82967839D01*
X108936599Y-83214401D01*
X114394758Y-88672560D01*
X114004362Y-88672560D01*
X112551401Y-87219599D01*
X112304839Y-87054852D01*
X112014000Y-86997000D01*
X102168802Y-86997000D01*
X101598000Y-86426198D01*
X101598000Y-80391000D01*
X101540148Y-80100161D01*
X101526712Y-80080052D01*
X101620943Y-80041117D01*
X101884192Y-79778327D01*
X102026838Y-79434799D01*
X102027162Y-79062833D01*
X101885117Y-78719057D01*
X101852000Y-78685882D01*
X101852000Y-74607167D01*
X114888838Y-74607167D01*
X115030883Y-74950943D01*
X115293673Y-75214192D01*
X115318000Y-75224294D01*
X115318000Y-76413403D01*
X115295057Y-76422883D01*
X115031808Y-76685673D01*
X114889162Y-77029201D01*
X114888838Y-77401167D01*
X115030883Y-77744943D01*
X115293673Y-78008192D01*
X115637201Y-78150838D01*
X116009167Y-78151162D01*
X116352943Y-78009117D01*
X116616192Y-77746327D01*
X116758838Y-77402799D01*
X116759052Y-77157413D01*
X116780148Y-77125840D01*
X116838000Y-76835000D01*
X116838000Y-74549000D01*
X116780148Y-74258161D01*
X116780148Y-74258160D01*
X116748247Y-74210417D01*
X116617117Y-73893057D01*
X116354327Y-73629808D01*
X116010799Y-73487162D01*
X115638833Y-73486838D01*
X115295057Y-73628883D01*
X115031808Y-73891673D01*
X114889162Y-74235201D01*
X114888838Y-74607167D01*
X101852000Y-74607167D01*
X101852000Y-67495167D01*
X114380838Y-67495167D01*
X114522883Y-67838943D01*
X114785673Y-68102192D01*
X114810000Y-68112294D01*
X114810000Y-69301403D01*
X114787057Y-69310883D01*
X114523808Y-69573673D01*
X114381162Y-69917201D01*
X114380838Y-70289167D01*
X114522883Y-70632943D01*
X114785673Y-70896192D01*
X115129201Y-71038838D01*
X115501167Y-71039162D01*
X115844943Y-70897117D01*
X116108192Y-70634327D01*
X116250838Y-70290799D01*
X116251052Y-70045413D01*
X116272148Y-70013840D01*
X116330000Y-69723000D01*
X116330000Y-67437000D01*
X116320818Y-67390838D01*
X116272148Y-67146160D01*
X116240247Y-67098417D01*
X116109117Y-66781057D01*
X115846327Y-66517808D01*
X115502799Y-66375162D01*
X115130833Y-66374838D01*
X114787057Y-66516883D01*
X114523808Y-66779673D01*
X114381162Y-67123201D01*
X114380838Y-67495167D01*
X101852000Y-67495167D01*
X101852000Y-65659000D01*
X101794148Y-65368161D01*
X101629401Y-65121599D01*
X101207794Y-64699992D01*
X101123117Y-64495057D01*
X100860327Y-64231808D01*
X100516799Y-64089162D01*
X100144833Y-64088838D01*
X99801057Y-64230883D01*
X99537808Y-64493673D01*
X99395162Y-64837201D01*
X99394838Y-65209167D01*
X99536883Y-65552943D01*
X99799673Y-65816192D01*
X100143201Y-65958838D01*
X100317188Y-65958990D01*
X100332000Y-65973802D01*
X100332000Y-78685537D01*
X100299808Y-78717673D01*
X100282106Y-78760304D01*
X99763498Y-78241696D01*
X99699054Y-77917715D01*
X99377147Y-77435946D01*
X98895378Y-77114039D01*
X98327093Y-77001000D01*
X98268907Y-77001000D01*
X97700622Y-77114039D01*
X97218853Y-77435946D01*
X96896946Y-77917715D01*
X96783907Y-78486000D01*
X96595000Y-78486000D01*
X96595000Y-60636706D01*
X96897929Y-61090071D01*
X97540287Y-61519281D01*
X98298000Y-61670000D01*
X99055713Y-61519281D01*
X99698071Y-61090071D01*
X100127281Y-60447713D01*
X100221160Y-59975750D01*
X101893000Y-59975750D01*
X101893000Y-60666309D01*
X101989673Y-60899698D01*
X102168301Y-61078327D01*
X102401690Y-61175000D01*
X103092250Y-61175000D01*
X103251000Y-61016250D01*
X103251000Y-59817000D01*
X102051750Y-59817000D01*
X101893000Y-59975750D01*
X100221160Y-59975750D01*
X100278000Y-59690000D01*
X100127281Y-58932287D01*
X99698071Y-58289929D01*
X99055713Y-57860719D01*
X99052098Y-57860000D01*
X100919045Y-57860000D01*
X100918838Y-58097167D01*
X100918838Y-58097167D01*
G37*
X100918838Y-58097167D02*
X101060883Y-58440943D01*
X101323673Y-58704192D01*
X101667201Y-58846838D01*
X101893000Y-58847035D01*
X101893000Y-59404250D01*
X102051750Y-59563000D01*
X103251000Y-59563000D01*
X103251000Y-59543000D01*
X103505000Y-59543000D01*
X103505000Y-59563000D01*
X103525000Y-59563000D01*
X103525000Y-59817000D01*
X103505000Y-59817000D01*
X103505000Y-61016250D01*
X103663750Y-61175000D01*
X104354310Y-61175000D01*
X104587699Y-61078327D01*
X104766327Y-60899698D01*
X104838597Y-60725223D01*
X104867946Y-60769147D01*
X105349715Y-61091054D01*
X105918000Y-61204093D01*
X106486285Y-61091054D01*
X106968054Y-60769147D01*
X107188000Y-60439974D01*
X107407946Y-60769147D01*
X107889715Y-61091054D01*
X108458000Y-61204093D01*
X109026285Y-61091054D01*
X109508054Y-60769147D01*
X109728000Y-60439974D01*
X109947946Y-60769147D01*
X110238000Y-60962954D01*
X110238000Y-64135000D01*
X110295852Y-64425839D01*
X110442290Y-64645000D01*
X105216802Y-64645000D01*
X104763794Y-64191992D01*
X104679117Y-63987057D01*
X104416327Y-63723808D01*
X104072799Y-63581162D01*
X103700833Y-63580838D01*
X103357057Y-63722883D01*
X103093808Y-63985673D01*
X102951162Y-64329201D01*
X102950838Y-64701167D01*
X103092883Y-65044943D01*
X103355673Y-65308192D01*
X103699201Y-65450838D01*
X103873188Y-65450990D01*
X104364599Y-65942401D01*
X104611161Y-66107148D01*
X104902000Y-66165000D01*
X120081198Y-66165000D01*
X121128599Y-67212401D01*
X121375160Y-67377148D01*
X121468858Y-67395786D01*
X121137057Y-67532883D01*
X120873808Y-67795673D01*
X120731162Y-68139201D01*
X120730838Y-68511167D01*
X120872883Y-68854943D01*
X120980752Y-68963000D01*
X119682005Y-68963000D01*
X119566799Y-68915162D01*
X119194833Y-68914838D01*
X118851057Y-69056883D01*
X118587808Y-69319673D01*
X118445162Y-69663201D01*
X118444838Y-70035167D01*
X118586883Y-70378943D01*
X118849673Y-70642192D01*
X119193201Y-70784838D01*
X119565167Y-70785162D01*
X119908943Y-70643117D01*
X120069340Y-70483000D01*
X128850759Y-70483000D01*
X129009673Y-70642192D01*
X129353201Y-70784838D01*
X129542000Y-70785002D01*
X129542000Y-71440198D01*
X129469992Y-71512206D01*
X129265057Y-71596883D01*
X129001808Y-71859673D01*
X128859162Y-72203201D01*
X128858838Y-72575167D01*
X128914322Y-72709449D01*
X128747808Y-72875673D01*
X128605162Y-73219201D01*
X128604838Y-73591167D01*
X128746883Y-73934943D01*
X128786035Y-73974163D01*
X128707992Y-74052206D01*
X128503057Y-74136883D01*
X128239808Y-74399673D01*
X128097162Y-74743201D01*
X128096838Y-75115167D01*
X128238883Y-75458943D01*
X128501673Y-75722192D01*
X128845201Y-75864838D01*
X129217167Y-75865162D01*
X129540371Y-75731617D01*
X129861201Y-75864838D01*
X130233167Y-75865162D01*
X130576943Y-75723117D01*
X130840192Y-75460327D01*
X130982838Y-75116799D01*
X130982990Y-74942812D01*
X132363401Y-73562401D01*
X132528148Y-73315839D01*
X132586000Y-73025000D01*
X132586000Y-72769000D01*
X133422759Y-72769000D01*
X133581673Y-72928192D01*
X133925201Y-73070838D01*
X134164473Y-73071046D01*
X133980946Y-73345715D01*
X133867907Y-73914000D01*
X133980946Y-74482285D01*
X134302853Y-74964054D01*
X134784622Y-75285961D01*
X135352907Y-75399000D01*
X135411093Y-75399000D01*
X135979378Y-75285961D01*
X136461147Y-74964054D01*
X136650345Y-74680899D01*
X136650355Y-74680924D01*
X137040642Y-75109183D01*
X137565108Y-75355486D01*
X137795000Y-75234819D01*
X137795000Y-74041000D01*
X138049000Y-74041000D01*
X138049000Y-75234819D01*
X138278892Y-75355486D01*
X138803358Y-75109183D01*
X139193645Y-74680924D01*
X139363476Y-74270890D01*
X139242155Y-74041000D01*
X138049000Y-74041000D01*
X137795000Y-74041000D01*
X137775000Y-74041000D01*
X137775000Y-73787000D01*
X137795000Y-73787000D01*
X137795000Y-73767000D01*
X138049000Y-73767000D01*
X138049000Y-73787000D01*
X139242155Y-73787000D01*
X139363476Y-73557110D01*
X139193645Y-73147076D01*
X138803358Y-72718817D01*
X138660447Y-72651702D01*
X139001147Y-72424054D01*
X139323054Y-71942285D01*
X139436093Y-71374000D01*
X139323054Y-70805715D01*
X139001147Y-70323946D01*
X138671974Y-70104000D01*
X139001147Y-69884054D01*
X139323054Y-69402285D01*
X139436093Y-68834000D01*
X139323054Y-68265715D01*
X139001147Y-67783946D01*
X138519378Y-67462039D01*
X137951093Y-67349000D01*
X137892907Y-67349000D01*
X137324622Y-67462039D01*
X136842853Y-67783946D01*
X136842029Y-67785179D01*
X136835162Y-67748683D01*
X136696090Y-67532559D01*
X136483890Y-67387569D01*
X136232000Y-67336560D01*
X134532000Y-67336560D01*
X134296683Y-67380838D01*
X134080559Y-67519910D01*
X133935569Y-67732110D01*
X133884560Y-67984000D01*
X133884560Y-69684000D01*
X133928838Y-69919317D01*
X134067910Y-70135441D01*
X134280110Y-70280431D01*
X134347541Y-70294086D01*
X134302853Y-70323946D01*
X133980946Y-70805715D01*
X133900159Y-71211860D01*
X133810272Y-71249000D01*
X132080000Y-71249000D01*
X132078000Y-71249398D01*
X132078000Y-64957802D01*
X135925663Y-61110139D01*
X136398000Y-61204093D01*
X136966285Y-61091054D01*
X137448054Y-60769147D01*
X137668000Y-60439974D01*
X137887946Y-60769147D01*
X138369715Y-61091054D01*
X138938000Y-61204093D01*
X139506285Y-61091054D01*
X139988054Y-60769147D01*
X140215702Y-60428447D01*
X140282817Y-60571358D01*
X140711076Y-60961645D01*
X141121110Y-61131476D01*
X141351000Y-61010155D01*
X141351000Y-59817000D01*
X141605000Y-59817000D01*
X141605000Y-61010155D01*
X141834890Y-61131476D01*
X142244924Y-60961645D01*
X142673183Y-60571358D01*
X142919486Y-60046892D01*
X142798819Y-59817000D01*
X141605000Y-59817000D01*
X141351000Y-59817000D01*
X141331000Y-59817000D01*
X141331000Y-59563000D01*
X141351000Y-59563000D01*
X141351000Y-58369845D01*
X141605000Y-58369845D01*
X141605000Y-59563000D01*
X142798819Y-59563000D01*
X142919486Y-59333108D01*
X142673183Y-58808642D01*
X142244924Y-58418355D01*
X141834890Y-58248524D01*
X141605000Y-58369845D01*
X141351000Y-58369845D01*
X141121110Y-58248524D01*
X140711076Y-58418355D01*
X140282817Y-58808642D01*
X140215702Y-58951553D01*
X139988054Y-58610853D01*
X139506285Y-58288946D01*
X138938000Y-58175907D01*
X138369715Y-58288946D01*
X137887946Y-58610853D01*
X137668000Y-58940026D01*
X137448054Y-58610853D01*
X136966285Y-58288946D01*
X136398000Y-58175907D01*
X135829715Y-58288946D01*
X135347946Y-58610853D01*
X135128000Y-58940026D01*
X134908054Y-58610853D01*
X134426285Y-58288946D01*
X133858000Y-58175907D01*
X133289715Y-58288946D01*
X132807946Y-58610853D01*
X132588000Y-58940026D01*
X132368054Y-58610853D01*
X131886285Y-58288946D01*
X131318000Y-58175907D01*
X130749715Y-58288946D01*
X130267946Y-58610853D01*
X130048000Y-58940026D01*
X129828054Y-58610853D01*
X129346285Y-58288946D01*
X128778000Y-58175907D01*
X128209715Y-58288946D01*
X127727946Y-58610853D01*
X127508000Y-58940026D01*
X127288054Y-58610853D01*
X126806285Y-58288946D01*
X126238000Y-58175907D01*
X125669715Y-58288946D01*
X125187946Y-58610853D01*
X124968000Y-58940026D01*
X124748054Y-58610853D01*
X124266285Y-58288946D01*
X123698000Y-58175907D01*
X123129715Y-58288946D01*
X122647946Y-58610853D01*
X122428000Y-58940026D01*
X122208054Y-58610853D01*
X121726285Y-58288946D01*
X121158000Y-58175907D01*
X120589715Y-58288946D01*
X120107946Y-58610853D01*
X119888000Y-58940026D01*
X119668054Y-58610853D01*
X119186285Y-58288946D01*
X118618000Y-58175907D01*
X118049715Y-58288946D01*
X117567946Y-58610853D01*
X117348000Y-58940026D01*
X117128054Y-58610853D01*
X116646285Y-58288946D01*
X116078000Y-58175907D01*
X115509715Y-58288946D01*
X115027946Y-58610853D01*
X114800298Y-58951553D01*
X114733183Y-58808642D01*
X114304924Y-58418355D01*
X113894890Y-58248524D01*
X113665000Y-58369845D01*
X113665000Y-59563000D01*
X113685000Y-59563000D01*
X113685000Y-59817000D01*
X113665000Y-59817000D01*
X113665000Y-61010155D01*
X113894890Y-61131476D01*
X114304924Y-60961645D01*
X114733183Y-60571358D01*
X114800298Y-60428447D01*
X115027946Y-60769147D01*
X115318000Y-60962954D01*
X115318000Y-63373000D01*
X115375852Y-63663839D01*
X115522290Y-63883000D01*
X111820802Y-63883000D01*
X111758000Y-63820198D01*
X111758000Y-60962954D01*
X112048054Y-60769147D01*
X112275702Y-60428447D01*
X112342817Y-60571358D01*
X112771076Y-60961645D01*
X113181110Y-61131476D01*
X113411000Y-61010155D01*
X113411000Y-59817000D01*
X113391000Y-59817000D01*
X113391000Y-59563000D01*
X113411000Y-59563000D01*
X113411000Y-58369845D01*
X113181110Y-58248524D01*
X112771076Y-58418355D01*
X112342817Y-58808642D01*
X112275702Y-58951553D01*
X112048054Y-58610853D01*
X111566285Y-58288946D01*
X110998000Y-58175907D01*
X110429715Y-58288946D01*
X109947946Y-58610853D01*
X109728000Y-58940026D01*
X109508054Y-58610853D01*
X109188188Y-58397126D01*
X109160148Y-58256161D01*
X108995401Y-58009599D01*
X108845802Y-57860000D01*
X172727902Y-57860000D01*
X172724287Y-57860719D01*
X172081929Y-58289929D01*
X171652719Y-58932287D01*
X171502000Y-59690000D01*
X171652719Y-60447713D01*
X172081929Y-61090071D01*
X172724287Y-61519281D01*
X173482000Y-61670000D01*
X174239713Y-61519281D01*
X174882071Y-61090071D01*
X175185000Y-60636706D01*
X175185000Y-89731294D01*
X174882071Y-89277929D01*
X174239713Y-88848719D01*
X173482000Y-88698000D01*
X172724287Y-88848719D01*
X172081929Y-89277929D01*
X171652719Y-89920287D01*
X171502000Y-90678000D01*
X171652719Y-91435713D01*
X172081929Y-92078071D01*
X172724287Y-92507281D01*
X173482000Y-92658000D01*
X174239713Y-92507281D01*
X174882071Y-92078071D01*
X175185000Y-91624706D01*
X175185000Y-93091000D01*
X96595000Y-93091000D01*
X96595000Y-91624706D01*
X96897929Y-92078071D01*
X97540287Y-92507281D01*
X98298000Y-92658000D01*
X99055713Y-92507281D01*
X99698071Y-92078071D01*
X100127281Y-91435713D01*
X100278000Y-90678000D01*
X100127281Y-89920287D01*
X99726182Y-89320000D01*
X103277560Y-89320000D01*
X103277560Y-91020000D01*
X103321838Y-91255317D01*
X103460910Y-91471441D01*
X103673110Y-91616431D01*
X103925000Y-91667440D01*
X105625000Y-91667440D01*
X105860317Y-91623162D01*
X106076441Y-91484090D01*
X106221431Y-91271890D01*
X106235086Y-91204459D01*
X106264946Y-91249147D01*
X106746715Y-91571054D01*
X107315000Y-91684093D01*
X107883285Y-91571054D01*
X108365054Y-91249147D01*
X108686961Y-90767378D01*
X108800000Y-90199093D01*
X108800000Y-90140907D01*
X108686961Y-89572622D01*
X108365054Y-89090853D01*
X107883285Y-88768946D01*
X107315000Y-88655907D01*
X106746715Y-88768946D01*
X106264946Y-89090853D01*
X106237150Y-89132452D01*
X106228162Y-89084683D01*
X106089090Y-88868559D01*
X105876890Y-88723569D01*
X105625000Y-88672560D01*
X103925000Y-88672560D01*
X103689683Y-88716838D01*
X103473559Y-88855910D01*
X103328569Y-89068110D01*
X103277560Y-89320000D01*
X99726182Y-89320000D01*
X99698071Y-89277929D01*
X99055713Y-88848719D01*
X98298000Y-88698000D01*
X97540287Y-88848719D01*
X96897929Y-89277929D01*
X96595000Y-89731294D01*
X96595000Y-81311750D01*
X96813000Y-81311750D01*
X96813000Y-82002310D01*
X96909673Y-82235699D01*
X97088302Y-82414327D01*
X97321691Y-82511000D01*
X98012250Y-82511000D01*
X98171000Y-82352250D01*
X98171000Y-81153000D01*
X98425000Y-81153000D01*
X98425000Y-82352250D01*
X98583750Y-82511000D01*
X99274309Y-82511000D01*
X99507698Y-82414327D01*
X99686327Y-82235699D01*
X99783000Y-82002310D01*
X99783000Y-81311750D01*
X99624250Y-81153000D01*
X98425000Y-81153000D01*
X98171000Y-81153000D01*
X96971750Y-81153000D01*
X96813000Y-81311750D01*
X96595000Y-81311750D01*
X96595000Y-78486000D01*
X96783907Y-78486000D01*
X96896946Y-79054285D01*
X97218853Y-79536054D01*
X97262777Y-79565403D01*
X97088302Y-79637673D01*
X96909673Y-79816301D01*
X96813000Y-80049690D01*
X96813000Y-80740250D01*
X96971750Y-80899000D01*
X98171000Y-80899000D01*
X98171000Y-80879000D01*
X98425000Y-80879000D01*
X98425000Y-80899000D01*
X99624250Y-80899000D01*
X99783000Y-80740250D01*
X99783000Y-80410802D01*
X100078000Y-80705802D01*
X100078000Y-86741000D01*
X100135852Y-87031839D01*
X100300599Y-87278401D01*
X101316599Y-88294401D01*
X101563161Y-88459148D01*
X101854000Y-88517000D01*
X111699198Y-88517000D01*
X112802560Y-89620362D01*
X112802560Y-91020000D01*
X112846838Y-91255317D01*
X112985910Y-91471441D01*
X113198110Y-91616431D01*
X113450000Y-91667440D01*
X115150000Y-91667440D01*
X115385317Y-91623162D01*
X115601441Y-91484090D01*
X115746431Y-91271890D01*
X115760086Y-91204459D01*
X115789946Y-91249147D01*
X116271715Y-91571054D01*
X116840000Y-91684093D01*
X117408285Y-91571054D01*
X117890054Y-91249147D01*
X118211961Y-90767378D01*
X118325000Y-90199093D01*
X118325000Y-90140907D01*
X118211961Y-89572622D01*
X117890054Y-89090853D01*
X117408285Y-88768946D01*
X116840000Y-88655907D01*
X116579521Y-88707719D01*
X110234000Y-82362198D01*
X110234000Y-82334633D01*
X110557201Y-82468838D01*
X110929167Y-82469162D01*
X111272943Y-82327117D01*
X111433340Y-82167000D01*
X114554000Y-82167000D01*
X114844839Y-82109148D01*
X115091401Y-81944401D01*
X121424790Y-75611012D01*
X121597167Y-75611162D01*
X121940943Y-75469117D01*
X122204192Y-75206327D01*
X122346838Y-74862799D01*
X122347162Y-74490833D01*
X122205117Y-74147057D01*
X121942327Y-73883808D01*
X121598799Y-73741162D01*
X121226833Y-73740838D01*
X120883057Y-73882883D01*
X120619808Y-74145673D01*
X120534087Y-74352111D01*
X114239198Y-80647000D01*
X111046005Y-80647000D01*
X110930799Y-80599162D01*
X110558833Y-80598838D01*
X110234000Y-80733056D01*
X110234000Y-77016463D01*
X110266192Y-76984327D01*
X110408838Y-76640799D01*
X110409162Y-76268833D01*
X110267117Y-75925057D01*
X110004327Y-75661808D01*
X109660799Y-75519162D01*
X109288833Y-75518838D01*
X108945057Y-75660883D01*
X108681808Y-75923673D01*
X108539162Y-76267201D01*
X108538838Y-76639167D01*
X108680883Y-76982943D01*
X108714000Y-77016118D01*
X108714000Y-82677000D01*
X108771852Y-82967839D01*
X108936599Y-83214401D01*
X114394758Y-88672560D01*
X114004362Y-88672560D01*
X112551401Y-87219599D01*
X112304839Y-87054852D01*
X112014000Y-86997000D01*
X102168802Y-86997000D01*
X101598000Y-86426198D01*
X101598000Y-80391000D01*
X101540148Y-80100161D01*
X101526712Y-80080052D01*
X101620943Y-80041117D01*
X101884192Y-79778327D01*
X102026838Y-79434799D01*
X102027162Y-79062833D01*
X101885117Y-78719057D01*
X101852000Y-78685882D01*
X101852000Y-74607167D01*
X114888838Y-74607167D01*
X115030883Y-74950943D01*
X115293673Y-75214192D01*
X115318000Y-75224294D01*
X115318000Y-76413403D01*
X115295057Y-76422883D01*
X115031808Y-76685673D01*
X114889162Y-77029201D01*
X114888838Y-77401167D01*
X115030883Y-77744943D01*
X115293673Y-78008192D01*
X115637201Y-78150838D01*
X116009167Y-78151162D01*
X116352943Y-78009117D01*
X116616192Y-77746327D01*
X116758838Y-77402799D01*
X116759052Y-77157413D01*
X116780148Y-77125840D01*
X116838000Y-76835000D01*
X116838000Y-74549000D01*
X116780148Y-74258161D01*
X116780148Y-74258160D01*
X116748247Y-74210417D01*
X116617117Y-73893057D01*
X116354327Y-73629808D01*
X116010799Y-73487162D01*
X115638833Y-73486838D01*
X115295057Y-73628883D01*
X115031808Y-73891673D01*
X114889162Y-74235201D01*
X114888838Y-74607167D01*
X101852000Y-74607167D01*
X101852000Y-67495167D01*
X114380838Y-67495167D01*
X114522883Y-67838943D01*
X114785673Y-68102192D01*
X114810000Y-68112294D01*
X114810000Y-69301403D01*
X114787057Y-69310883D01*
X114523808Y-69573673D01*
X114381162Y-69917201D01*
X114380838Y-70289167D01*
X114522883Y-70632943D01*
X114785673Y-70896192D01*
X115129201Y-71038838D01*
X115501167Y-71039162D01*
X115844943Y-70897117D01*
X116108192Y-70634327D01*
X116250838Y-70290799D01*
X116251052Y-70045413D01*
X116272148Y-70013840D01*
X116330000Y-69723000D01*
X116330000Y-67437000D01*
X116320818Y-67390838D01*
X116272148Y-67146160D01*
X116240247Y-67098417D01*
X116109117Y-66781057D01*
X115846327Y-66517808D01*
X115502799Y-66375162D01*
X115130833Y-66374838D01*
X114787057Y-66516883D01*
X114523808Y-66779673D01*
X114381162Y-67123201D01*
X114380838Y-67495167D01*
X101852000Y-67495167D01*
X101852000Y-65659000D01*
X101794148Y-65368161D01*
X101629401Y-65121599D01*
X101207794Y-64699992D01*
X101123117Y-64495057D01*
X100860327Y-64231808D01*
X100516799Y-64089162D01*
X100144833Y-64088838D01*
X99801057Y-64230883D01*
X99537808Y-64493673D01*
X99395162Y-64837201D01*
X99394838Y-65209167D01*
X99536883Y-65552943D01*
X99799673Y-65816192D01*
X100143201Y-65958838D01*
X100317188Y-65958990D01*
X100332000Y-65973802D01*
X100332000Y-78685537D01*
X100299808Y-78717673D01*
X100282106Y-78760304D01*
X99763498Y-78241696D01*
X99699054Y-77917715D01*
X99377147Y-77435946D01*
X98895378Y-77114039D01*
X98327093Y-77001000D01*
X98268907Y-77001000D01*
X97700622Y-77114039D01*
X97218853Y-77435946D01*
X96896946Y-77917715D01*
X96783907Y-78486000D01*
X96595000Y-78486000D01*
X96595000Y-60636706D01*
X96897929Y-61090071D01*
X97540287Y-61519281D01*
X98298000Y-61670000D01*
X99055713Y-61519281D01*
X99698071Y-61090071D01*
X100127281Y-60447713D01*
X100221160Y-59975750D01*
X101893000Y-59975750D01*
X101893000Y-60666309D01*
X101989673Y-60899698D01*
X102168301Y-61078327D01*
X102401690Y-61175000D01*
X103092250Y-61175000D01*
X103251000Y-61016250D01*
X103251000Y-59817000D01*
X102051750Y-59817000D01*
X101893000Y-59975750D01*
X100221160Y-59975750D01*
X100278000Y-59690000D01*
X100127281Y-58932287D01*
X99698071Y-58289929D01*
X99055713Y-57860719D01*
X99052098Y-57860000D01*
X100919045Y-57860000D01*
X100918838Y-58097167D01*
G36*
X100919162Y-96333201D02*
X100918838Y-96705167D01*
X101060883Y-97048943D01*
X101323673Y-97312192D01*
X101667201Y-97454838D01*
X101893000Y-97455035D01*
X101893000Y-98012250D01*
X102051750Y-98171000D01*
X103251000Y-98171000D01*
X103251000Y-98151000D01*
X103505000Y-98151000D01*
X103505000Y-98171000D01*
X103525000Y-98171000D01*
X103525000Y-98425000D01*
X103505000Y-98425000D01*
X103505000Y-99624250D01*
X103663750Y-99783000D01*
X104354310Y-99783000D01*
X104587699Y-99686327D01*
X104766327Y-99507698D01*
X104838597Y-99333223D01*
X104867946Y-99377147D01*
X105349715Y-99699054D01*
X105918000Y-99812093D01*
X106486285Y-99699054D01*
X106968054Y-99377147D01*
X107188000Y-99047974D01*
X107407946Y-99377147D01*
X107889715Y-99699054D01*
X108458000Y-99812093D01*
X109026285Y-99699054D01*
X109508054Y-99377147D01*
X109728000Y-99047974D01*
X109947946Y-99377147D01*
X110238000Y-99570954D01*
X110238000Y-102743000D01*
X110295852Y-103033839D01*
X110442290Y-103253000D01*
X105216802Y-103253000D01*
X104763794Y-102799992D01*
X104679117Y-102595057D01*
X104416327Y-102331808D01*
X104072799Y-102189162D01*
X103700833Y-102188838D01*
X103357057Y-102330883D01*
X103093808Y-102593673D01*
X102951162Y-102937201D01*
X102950838Y-103309167D01*
X103092883Y-103652943D01*
X103355673Y-103916192D01*
X103699201Y-104058838D01*
X103873188Y-104058990D01*
X104364599Y-104550401D01*
X104611161Y-104715148D01*
X104902000Y-104773000D01*
X120081198Y-104773000D01*
X121128599Y-105820401D01*
X121375160Y-105985148D01*
X121468858Y-106003786D01*
X121137057Y-106140883D01*
X120873808Y-106403673D01*
X120731162Y-106747201D01*
X120730838Y-107119167D01*
X120872883Y-107462943D01*
X120980752Y-107571000D01*
X119682005Y-107571000D01*
X119566799Y-107523162D01*
X119194833Y-107522838D01*
X118851057Y-107664883D01*
X118587808Y-107927673D01*
X118445162Y-108271201D01*
X118444838Y-108643167D01*
X118586883Y-108986943D01*
X118849673Y-109250192D01*
X119193201Y-109392838D01*
X119565167Y-109393162D01*
X119908943Y-109251117D01*
X120069340Y-109091000D01*
X128850759Y-109091000D01*
X129009673Y-109250192D01*
X129353201Y-109392838D01*
X129542000Y-109393002D01*
X129542000Y-110048198D01*
X129469992Y-110120206D01*
X129265057Y-110204883D01*
X129001808Y-110467673D01*
X128859162Y-110811201D01*
X128858838Y-111183167D01*
X128914322Y-111317449D01*
X128747808Y-111483673D01*
X128605162Y-111827201D01*
X128604838Y-112199167D01*
X128746883Y-112542943D01*
X128786035Y-112582163D01*
X128707992Y-112660206D01*
X128503057Y-112744883D01*
X128239808Y-113007673D01*
X128097162Y-113351201D01*
X128096838Y-113723167D01*
X128238883Y-114066943D01*
X128501673Y-114330192D01*
X128845201Y-114472838D01*
X129217167Y-114473162D01*
X129540371Y-114339617D01*
X129861201Y-114472838D01*
X130233167Y-114473162D01*
X130576943Y-114331117D01*
X130840192Y-114068327D01*
X130982838Y-113724799D01*
X130982990Y-113550812D01*
X132363401Y-112170401D01*
X132528148Y-111923839D01*
X132586000Y-111633000D01*
X132586000Y-111377000D01*
X133422759Y-111377000D01*
X133581673Y-111536192D01*
X133925201Y-111678838D01*
X134164473Y-111679046D01*
X133980946Y-111953715D01*
X133867907Y-112522000D01*
X133980946Y-113090285D01*
X134302853Y-113572054D01*
X134784622Y-113893961D01*
X135352907Y-114007000D01*
X135411093Y-114007000D01*
X135979378Y-113893961D01*
X136461147Y-113572054D01*
X136650345Y-113288899D01*
X136650355Y-113288924D01*
X137040642Y-113717183D01*
X137565108Y-113963486D01*
X137795000Y-113842819D01*
X137795000Y-112649000D01*
X138049000Y-112649000D01*
X138049000Y-113842819D01*
X138278892Y-113963486D01*
X138803358Y-113717183D01*
X139193645Y-113288924D01*
X139363476Y-112878890D01*
X139242155Y-112649000D01*
X138049000Y-112649000D01*
X137795000Y-112649000D01*
X137775000Y-112649000D01*
X137775000Y-112395000D01*
X137795000Y-112395000D01*
X137795000Y-112375000D01*
X138049000Y-112375000D01*
X138049000Y-112395000D01*
X139242155Y-112395000D01*
X139363476Y-112165110D01*
X139193645Y-111755076D01*
X138803358Y-111326817D01*
X138660447Y-111259702D01*
X139001147Y-111032054D01*
X139323054Y-110550285D01*
X139436093Y-109982000D01*
X139323054Y-109413715D01*
X139001147Y-108931946D01*
X138671974Y-108712000D01*
X139001147Y-108492054D01*
X139323054Y-108010285D01*
X139436093Y-107442000D01*
X139323054Y-106873715D01*
X139001147Y-106391946D01*
X138519378Y-106070039D01*
X137951093Y-105957000D01*
X137892907Y-105957000D01*
X137324622Y-106070039D01*
X136842853Y-106391946D01*
X136842029Y-106393179D01*
X136835162Y-106356683D01*
X136696090Y-106140559D01*
X136483890Y-105995569D01*
X136232000Y-105944560D01*
X134532000Y-105944560D01*
X134296683Y-105988838D01*
X134080559Y-106127910D01*
X133935569Y-106340110D01*
X133884560Y-106592000D01*
X133884560Y-108292000D01*
X133928838Y-108527317D01*
X134067910Y-108743441D01*
X134280110Y-108888431D01*
X134347541Y-108902086D01*
X134302853Y-108931946D01*
X133980946Y-109413715D01*
X133900159Y-109819860D01*
X133810272Y-109857000D01*
X132080000Y-109857000D01*
X132078000Y-109857398D01*
X132078000Y-103565802D01*
X135925663Y-99718139D01*
X136398000Y-99812093D01*
X136966285Y-99699054D01*
X137448054Y-99377147D01*
X137668000Y-99047974D01*
X137887946Y-99377147D01*
X138369715Y-99699054D01*
X138938000Y-99812093D01*
X139506285Y-99699054D01*
X139988054Y-99377147D01*
X140215702Y-99036447D01*
X140282817Y-99179358D01*
X140711076Y-99569645D01*
X141121110Y-99739476D01*
X141351000Y-99618155D01*
X141351000Y-98425000D01*
X141605000Y-98425000D01*
X141605000Y-99618155D01*
X141834890Y-99739476D01*
X142244924Y-99569645D01*
X142673183Y-99179358D01*
X142919486Y-98654892D01*
X142798819Y-98425000D01*
X141605000Y-98425000D01*
X141351000Y-98425000D01*
X141331000Y-98425000D01*
X141331000Y-98171000D01*
X141351000Y-98171000D01*
X141351000Y-96977845D01*
X141605000Y-96977845D01*
X141605000Y-98171000D01*
X142798819Y-98171000D01*
X142919486Y-97941108D01*
X142673183Y-97416642D01*
X142244924Y-97026355D01*
X141834890Y-96856524D01*
X141605000Y-96977845D01*
X141351000Y-96977845D01*
X141121110Y-96856524D01*
X140711076Y-97026355D01*
X140282817Y-97416642D01*
X140215702Y-97559553D01*
X139988054Y-97218853D01*
X139506285Y-96896946D01*
X138938000Y-96783907D01*
X138369715Y-96896946D01*
X137887946Y-97218853D01*
X137668000Y-97548026D01*
X137448054Y-97218853D01*
X136966285Y-96896946D01*
X136398000Y-96783907D01*
X135829715Y-96896946D01*
X135347946Y-97218853D01*
X135128000Y-97548026D01*
X134908054Y-97218853D01*
X134426285Y-96896946D01*
X133858000Y-96783907D01*
X133289715Y-96896946D01*
X132807946Y-97218853D01*
X132588000Y-97548026D01*
X132368054Y-97218853D01*
X131886285Y-96896946D01*
X131318000Y-96783907D01*
X130749715Y-96896946D01*
X130267946Y-97218853D01*
X130048000Y-97548026D01*
X129828054Y-97218853D01*
X129346285Y-96896946D01*
X128778000Y-96783907D01*
X128209715Y-96896946D01*
X127727946Y-97218853D01*
X127508000Y-97548026D01*
X127288054Y-97218853D01*
X126806285Y-96896946D01*
X126238000Y-96783907D01*
X125669715Y-96896946D01*
X125187946Y-97218853D01*
X124968000Y-97548026D01*
X124748054Y-97218853D01*
X124266285Y-96896946D01*
X123698000Y-96783907D01*
X123129715Y-96896946D01*
X122647946Y-97218853D01*
X122428000Y-97548026D01*
X122208054Y-97218853D01*
X121726285Y-96896946D01*
X121158000Y-96783907D01*
X120589715Y-96896946D01*
X120107946Y-97218853D01*
X119888000Y-97548026D01*
X119668054Y-97218853D01*
X119186285Y-96896946D01*
X118618000Y-96783907D01*
X118049715Y-96896946D01*
X117567946Y-97218853D01*
X117348000Y-97548026D01*
X117128054Y-97218853D01*
X116646285Y-96896946D01*
X116078000Y-96783907D01*
X115509715Y-96896946D01*
X115027946Y-97218853D01*
X114800298Y-97559553D01*
X114733183Y-97416642D01*
X114304924Y-97026355D01*
X113894890Y-96856524D01*
X113665000Y-96977845D01*
X113665000Y-98171000D01*
X113685000Y-98171000D01*
X113685000Y-98425000D01*
X113665000Y-98425000D01*
X113665000Y-99618155D01*
X113894890Y-99739476D01*
X114304924Y-99569645D01*
X114733183Y-99179358D01*
X114800298Y-99036447D01*
X115027946Y-99377147D01*
X115318000Y-99570954D01*
X115318000Y-101981000D01*
X115375852Y-102271839D01*
X115522290Y-102491000D01*
X111820802Y-102491000D01*
X111758000Y-102428198D01*
X111758000Y-99570954D01*
X112048054Y-99377147D01*
X112275702Y-99036447D01*
X112342817Y-99179358D01*
X112771076Y-99569645D01*
X113181110Y-99739476D01*
X113411000Y-99618155D01*
X113411000Y-98425000D01*
X113391000Y-98425000D01*
X113391000Y-98171000D01*
X113411000Y-98171000D01*
X113411000Y-96977845D01*
X113181110Y-96856524D01*
X112771076Y-97026355D01*
X112342817Y-97416642D01*
X112275702Y-97559553D01*
X112048054Y-97218853D01*
X111566285Y-96896946D01*
X110998000Y-96783907D01*
X110429715Y-96896946D01*
X109947946Y-97218853D01*
X109728000Y-97548026D01*
X109508054Y-97218853D01*
X109188188Y-97005126D01*
X109160148Y-96864161D01*
X108995401Y-96617599D01*
X108516802Y-96139000D01*
X175185000Y-96139000D01*
X175185000Y-97351294D01*
X174882071Y-96897929D01*
X174239713Y-96468719D01*
X173482000Y-96318000D01*
X172724287Y-96468719D01*
X172081929Y-96897929D01*
X171652719Y-97540287D01*
X171502000Y-98298000D01*
X171652719Y-99055713D01*
X172081929Y-99698071D01*
X172724287Y-100127281D01*
X173482000Y-100278000D01*
X174239713Y-100127281D01*
X174882071Y-99698071D01*
X175185000Y-99244706D01*
X175185000Y-128339294D01*
X174882071Y-127885929D01*
X174239713Y-127456719D01*
X173482000Y-127306000D01*
X172724287Y-127456719D01*
X172081929Y-127885929D01*
X171652719Y-128528287D01*
X171502000Y-129286000D01*
X171652719Y-130043713D01*
X172081929Y-130686071D01*
X172724287Y-131115281D01*
X173366372Y-131243000D01*
X98413628Y-131243000D01*
X99055713Y-131115281D01*
X99698071Y-130686071D01*
X100127281Y-130043713D01*
X100278000Y-129286000D01*
X100127281Y-128528287D01*
X99726182Y-127928000D01*
X103277560Y-127928000D01*
X103277560Y-129628000D01*
X103321838Y-129863317D01*
X103460910Y-130079441D01*
X103673110Y-130224431D01*
X103925000Y-130275440D01*
X105625000Y-130275440D01*
X105860317Y-130231162D01*
X106076441Y-130092090D01*
X106221431Y-129879890D01*
X106235086Y-129812459D01*
X106264946Y-129857147D01*
X106746715Y-130179054D01*
X107315000Y-130292093D01*
X107883285Y-130179054D01*
X108365054Y-129857147D01*
X108686961Y-129375378D01*
X108800000Y-128807093D01*
X108800000Y-128748907D01*
X108686961Y-128180622D01*
X108365054Y-127698853D01*
X107883285Y-127376946D01*
X107315000Y-127263907D01*
X106746715Y-127376946D01*
X106264946Y-127698853D01*
X106237150Y-127740452D01*
X106228162Y-127692683D01*
X106089090Y-127476559D01*
X105876890Y-127331569D01*
X105625000Y-127280560D01*
X103925000Y-127280560D01*
X103689683Y-127324838D01*
X103473559Y-127463910D01*
X103328569Y-127676110D01*
X103277560Y-127928000D01*
X99726182Y-127928000D01*
X99698071Y-127885929D01*
X99055713Y-127456719D01*
X98298000Y-127306000D01*
X97540287Y-127456719D01*
X96897929Y-127885929D01*
X96595000Y-128339294D01*
X96595000Y-119919750D01*
X96813000Y-119919750D01*
X96813000Y-120610310D01*
X96909673Y-120843699D01*
X97088302Y-121022327D01*
X97321691Y-121119000D01*
X98012250Y-121119000D01*
X98171000Y-120960250D01*
X98171000Y-119761000D01*
X98425000Y-119761000D01*
X98425000Y-120960250D01*
X98583750Y-121119000D01*
X99274309Y-121119000D01*
X99507698Y-121022327D01*
X99686327Y-120843699D01*
X99783000Y-120610310D01*
X99783000Y-119919750D01*
X99624250Y-119761000D01*
X98425000Y-119761000D01*
X98171000Y-119761000D01*
X96971750Y-119761000D01*
X96813000Y-119919750D01*
X96595000Y-119919750D01*
X96595000Y-117094000D01*
X96783907Y-117094000D01*
X96896946Y-117662285D01*
X97218853Y-118144054D01*
X97262777Y-118173403D01*
X97088302Y-118245673D01*
X96909673Y-118424301D01*
X96813000Y-118657690D01*
X96813000Y-119348250D01*
X96971750Y-119507000D01*
X98171000Y-119507000D01*
X98171000Y-119487000D01*
X98425000Y-119487000D01*
X98425000Y-119507000D01*
X99624250Y-119507000D01*
X99783000Y-119348250D01*
X99783000Y-119018802D01*
X100078000Y-119313802D01*
X100078000Y-125349000D01*
X100135852Y-125639839D01*
X100300599Y-125886401D01*
X101316599Y-126902401D01*
X101563161Y-127067148D01*
X101854000Y-127125000D01*
X111699198Y-127125000D01*
X112802560Y-128228362D01*
X112802560Y-129628000D01*
X112846838Y-129863317D01*
X112985910Y-130079441D01*
X113198110Y-130224431D01*
X113450000Y-130275440D01*
X115150000Y-130275440D01*
X115385317Y-130231162D01*
X115601441Y-130092090D01*
X115746431Y-129879890D01*
X115760086Y-129812459D01*
X115789946Y-129857147D01*
X116271715Y-130179054D01*
X116840000Y-130292093D01*
X117408285Y-130179054D01*
X117890054Y-129857147D01*
X118211961Y-129375378D01*
X118325000Y-128807093D01*
X118325000Y-128748907D01*
X118211961Y-128180622D01*
X117890054Y-127698853D01*
X117408285Y-127376946D01*
X116840000Y-127263907D01*
X116579521Y-127315719D01*
X110234000Y-120970198D01*
X110234000Y-120942633D01*
X110557201Y-121076838D01*
X110929167Y-121077162D01*
X111272943Y-120935117D01*
X111433340Y-120775000D01*
X114554000Y-120775000D01*
X114844839Y-120717148D01*
X115091401Y-120552401D01*
X121424790Y-114219012D01*
X121597167Y-114219162D01*
X121940943Y-114077117D01*
X122204192Y-113814327D01*
X122346838Y-113470799D01*
X122347162Y-113098833D01*
X122205117Y-112755057D01*
X121942327Y-112491808D01*
X121598799Y-112349162D01*
X121226833Y-112348838D01*
X120883057Y-112490883D01*
X120619808Y-112753673D01*
X120534087Y-112960111D01*
X114239198Y-119255000D01*
X111046005Y-119255000D01*
X110930799Y-119207162D01*
X110558833Y-119206838D01*
X110234000Y-119341056D01*
X110234000Y-115624463D01*
X110266192Y-115592327D01*
X110408838Y-115248799D01*
X110409162Y-114876833D01*
X110267117Y-114533057D01*
X110004327Y-114269808D01*
X109660799Y-114127162D01*
X109288833Y-114126838D01*
X108945057Y-114268883D01*
X108681808Y-114531673D01*
X108539162Y-114875201D01*
X108538838Y-115247167D01*
X108680883Y-115590943D01*
X108714000Y-115624118D01*
X108714000Y-121285000D01*
X108771852Y-121575839D01*
X108936599Y-121822401D01*
X114394758Y-127280560D01*
X114004362Y-127280560D01*
X112551401Y-125827599D01*
X112304839Y-125662852D01*
X112014000Y-125605000D01*
X102168802Y-125605000D01*
X101598000Y-125034198D01*
X101598000Y-118999000D01*
X101540148Y-118708161D01*
X101526712Y-118688052D01*
X101620943Y-118649117D01*
X101884192Y-118386327D01*
X102026838Y-118042799D01*
X102027162Y-117670833D01*
X101885117Y-117327057D01*
X101852000Y-117293882D01*
X101852000Y-113215167D01*
X114888838Y-113215167D01*
X115030883Y-113558943D01*
X115293673Y-113822192D01*
X115318000Y-113832294D01*
X115318000Y-115021403D01*
X115295057Y-115030883D01*
X115031808Y-115293673D01*
X114889162Y-115637201D01*
X114888838Y-116009167D01*
X115030883Y-116352943D01*
X115293673Y-116616192D01*
X115637201Y-116758838D01*
X116009167Y-116759162D01*
X116352943Y-116617117D01*
X116616192Y-116354327D01*
X116758838Y-116010799D01*
X116759052Y-115765413D01*
X116780148Y-115733840D01*
X116838000Y-115443000D01*
X116838000Y-113157000D01*
X116780148Y-112866161D01*
X116780148Y-112866160D01*
X116748247Y-112818417D01*
X116617117Y-112501057D01*
X116354327Y-112237808D01*
X116010799Y-112095162D01*
X115638833Y-112094838D01*
X115295057Y-112236883D01*
X115031808Y-112499673D01*
X114889162Y-112843201D01*
X114888838Y-113215167D01*
X101852000Y-113215167D01*
X101852000Y-106103167D01*
X114380838Y-106103167D01*
X114522883Y-106446943D01*
X114785673Y-106710192D01*
X114810000Y-106720294D01*
X114810000Y-107909403D01*
X114787057Y-107918883D01*
X114523808Y-108181673D01*
X114381162Y-108525201D01*
X114380838Y-108897167D01*
X114522883Y-109240943D01*
X114785673Y-109504192D01*
X115129201Y-109646838D01*
X115501167Y-109647162D01*
X115844943Y-109505117D01*
X116108192Y-109242327D01*
X116250838Y-108898799D01*
X116251052Y-108653413D01*
X116272148Y-108621840D01*
X116330000Y-108331000D01*
X116330000Y-106045000D01*
X116320818Y-105998838D01*
X116272148Y-105754160D01*
X116240247Y-105706417D01*
X116109117Y-105389057D01*
X115846327Y-105125808D01*
X115502799Y-104983162D01*
X115130833Y-104982838D01*
X114787057Y-105124883D01*
X114523808Y-105387673D01*
X114381162Y-105731201D01*
X114380838Y-106103167D01*
X101852000Y-106103167D01*
X101852000Y-104267000D01*
X101794148Y-103976161D01*
X101629401Y-103729599D01*
X101207794Y-103307992D01*
X101123117Y-103103057D01*
X100860327Y-102839808D01*
X100516799Y-102697162D01*
X100144833Y-102696838D01*
X99801057Y-102838883D01*
X99537808Y-103101673D01*
X99395162Y-103445201D01*
X99394838Y-103817167D01*
X99536883Y-104160943D01*
X99799673Y-104424192D01*
X100143201Y-104566838D01*
X100317188Y-104566990D01*
X100332000Y-104581802D01*
X100332000Y-117293537D01*
X100299808Y-117325673D01*
X100282106Y-117368304D01*
X99763498Y-116849696D01*
X99699054Y-116525715D01*
X99377147Y-116043946D01*
X98895378Y-115722039D01*
X98327093Y-115609000D01*
X98268907Y-115609000D01*
X97700622Y-115722039D01*
X97218853Y-116043946D01*
X96896946Y-116525715D01*
X96783907Y-117094000D01*
X96595000Y-117094000D01*
X96595000Y-99244706D01*
X96897929Y-99698071D01*
X97540287Y-100127281D01*
X98298000Y-100278000D01*
X99055713Y-100127281D01*
X99698071Y-99698071D01*
X100127281Y-99055713D01*
X100221160Y-98583750D01*
X101893000Y-98583750D01*
X101893000Y-99274309D01*
X101989673Y-99507698D01*
X102168301Y-99686327D01*
X102401690Y-99783000D01*
X103092250Y-99783000D01*
X103251000Y-99624250D01*
X103251000Y-98425000D01*
X102051750Y-98425000D01*
X101893000Y-98583750D01*
X100221160Y-98583750D01*
X100278000Y-98298000D01*
X100127281Y-97540287D01*
X99698071Y-96897929D01*
X99055713Y-96468719D01*
X98298000Y-96318000D01*
X97540287Y-96468719D01*
X96897929Y-96897929D01*
X96595000Y-97351294D01*
X96595000Y-96139000D01*
X100999802Y-96139000D01*
X100919162Y-96333201D01*
X100919162Y-96333201D01*
G37*
X100919162Y-96333201D02*
X100918838Y-96705167D01*
X101060883Y-97048943D01*
X101323673Y-97312192D01*
X101667201Y-97454838D01*
X101893000Y-97455035D01*
X101893000Y-98012250D01*
X102051750Y-98171000D01*
X103251000Y-98171000D01*
X103251000Y-98151000D01*
X103505000Y-98151000D01*
X103505000Y-98171000D01*
X103525000Y-98171000D01*
X103525000Y-98425000D01*
X103505000Y-98425000D01*
X103505000Y-99624250D01*
X103663750Y-99783000D01*
X104354310Y-99783000D01*
X104587699Y-99686327D01*
X104766327Y-99507698D01*
X104838597Y-99333223D01*
X104867946Y-99377147D01*
X105349715Y-99699054D01*
X105918000Y-99812093D01*
X106486285Y-99699054D01*
X106968054Y-99377147D01*
X107188000Y-99047974D01*
X107407946Y-99377147D01*
X107889715Y-99699054D01*
X108458000Y-99812093D01*
X109026285Y-99699054D01*
X109508054Y-99377147D01*
X109728000Y-99047974D01*
X109947946Y-99377147D01*
X110238000Y-99570954D01*
X110238000Y-102743000D01*
X110295852Y-103033839D01*
X110442290Y-103253000D01*
X105216802Y-103253000D01*
X104763794Y-102799992D01*
X104679117Y-102595057D01*
X104416327Y-102331808D01*
X104072799Y-102189162D01*
X103700833Y-102188838D01*
X103357057Y-102330883D01*
X103093808Y-102593673D01*
X102951162Y-102937201D01*
X102950838Y-103309167D01*
X103092883Y-103652943D01*
X103355673Y-103916192D01*
X103699201Y-104058838D01*
X103873188Y-104058990D01*
X104364599Y-104550401D01*
X104611161Y-104715148D01*
X104902000Y-104773000D01*
X120081198Y-104773000D01*
X121128599Y-105820401D01*
X121375160Y-105985148D01*
X121468858Y-106003786D01*
X121137057Y-106140883D01*
X120873808Y-106403673D01*
X120731162Y-106747201D01*
X120730838Y-107119167D01*
X120872883Y-107462943D01*
X120980752Y-107571000D01*
X119682005Y-107571000D01*
X119566799Y-107523162D01*
X119194833Y-107522838D01*
X118851057Y-107664883D01*
X118587808Y-107927673D01*
X118445162Y-108271201D01*
X118444838Y-108643167D01*
X118586883Y-108986943D01*
X118849673Y-109250192D01*
X119193201Y-109392838D01*
X119565167Y-109393162D01*
X119908943Y-109251117D01*
X120069340Y-109091000D01*
X128850759Y-109091000D01*
X129009673Y-109250192D01*
X129353201Y-109392838D01*
X129542000Y-109393002D01*
X129542000Y-110048198D01*
X129469992Y-110120206D01*
X129265057Y-110204883D01*
X129001808Y-110467673D01*
X128859162Y-110811201D01*
X128858838Y-111183167D01*
X128914322Y-111317449D01*
X128747808Y-111483673D01*
X128605162Y-111827201D01*
X128604838Y-112199167D01*
X128746883Y-112542943D01*
X128786035Y-112582163D01*
X128707992Y-112660206D01*
X128503057Y-112744883D01*
X128239808Y-113007673D01*
X128097162Y-113351201D01*
X128096838Y-113723167D01*
X128238883Y-114066943D01*
X128501673Y-114330192D01*
X128845201Y-114472838D01*
X129217167Y-114473162D01*
X129540371Y-114339617D01*
X129861201Y-114472838D01*
X130233167Y-114473162D01*
X130576943Y-114331117D01*
X130840192Y-114068327D01*
X130982838Y-113724799D01*
X130982990Y-113550812D01*
X132363401Y-112170401D01*
X132528148Y-111923839D01*
X132586000Y-111633000D01*
X132586000Y-111377000D01*
X133422759Y-111377000D01*
X133581673Y-111536192D01*
X133925201Y-111678838D01*
X134164473Y-111679046D01*
X133980946Y-111953715D01*
X133867907Y-112522000D01*
X133980946Y-113090285D01*
X134302853Y-113572054D01*
X134784622Y-113893961D01*
X135352907Y-114007000D01*
X135411093Y-114007000D01*
X135979378Y-113893961D01*
X136461147Y-113572054D01*
X136650345Y-113288899D01*
X136650355Y-113288924D01*
X137040642Y-113717183D01*
X137565108Y-113963486D01*
X137795000Y-113842819D01*
X137795000Y-112649000D01*
X138049000Y-112649000D01*
X138049000Y-113842819D01*
X138278892Y-113963486D01*
X138803358Y-113717183D01*
X139193645Y-113288924D01*
X139363476Y-112878890D01*
X139242155Y-112649000D01*
X138049000Y-112649000D01*
X137795000Y-112649000D01*
X137775000Y-112649000D01*
X137775000Y-112395000D01*
X137795000Y-112395000D01*
X137795000Y-112375000D01*
X138049000Y-112375000D01*
X138049000Y-112395000D01*
X139242155Y-112395000D01*
X139363476Y-112165110D01*
X139193645Y-111755076D01*
X138803358Y-111326817D01*
X138660447Y-111259702D01*
X139001147Y-111032054D01*
X139323054Y-110550285D01*
X139436093Y-109982000D01*
X139323054Y-109413715D01*
X139001147Y-108931946D01*
X138671974Y-108712000D01*
X139001147Y-108492054D01*
X139323054Y-108010285D01*
X139436093Y-107442000D01*
X139323054Y-106873715D01*
X139001147Y-106391946D01*
X138519378Y-106070039D01*
X137951093Y-105957000D01*
X137892907Y-105957000D01*
X137324622Y-106070039D01*
X136842853Y-106391946D01*
X136842029Y-106393179D01*
X136835162Y-106356683D01*
X136696090Y-106140559D01*
X136483890Y-105995569D01*
X136232000Y-105944560D01*
X134532000Y-105944560D01*
X134296683Y-105988838D01*
X134080559Y-106127910D01*
X133935569Y-106340110D01*
X133884560Y-106592000D01*
X133884560Y-108292000D01*
X133928838Y-108527317D01*
X134067910Y-108743441D01*
X134280110Y-108888431D01*
X134347541Y-108902086D01*
X134302853Y-108931946D01*
X133980946Y-109413715D01*
X133900159Y-109819860D01*
X133810272Y-109857000D01*
X132080000Y-109857000D01*
X132078000Y-109857398D01*
X132078000Y-103565802D01*
X135925663Y-99718139D01*
X136398000Y-99812093D01*
X136966285Y-99699054D01*
X137448054Y-99377147D01*
X137668000Y-99047974D01*
X137887946Y-99377147D01*
X138369715Y-99699054D01*
X138938000Y-99812093D01*
X139506285Y-99699054D01*
X139988054Y-99377147D01*
X140215702Y-99036447D01*
X140282817Y-99179358D01*
X140711076Y-99569645D01*
X141121110Y-99739476D01*
X141351000Y-99618155D01*
X141351000Y-98425000D01*
X141605000Y-98425000D01*
X141605000Y-99618155D01*
X141834890Y-99739476D01*
X142244924Y-99569645D01*
X142673183Y-99179358D01*
X142919486Y-98654892D01*
X142798819Y-98425000D01*
X141605000Y-98425000D01*
X141351000Y-98425000D01*
X141331000Y-98425000D01*
X141331000Y-98171000D01*
X141351000Y-98171000D01*
X141351000Y-96977845D01*
X141605000Y-96977845D01*
X141605000Y-98171000D01*
X142798819Y-98171000D01*
X142919486Y-97941108D01*
X142673183Y-97416642D01*
X142244924Y-97026355D01*
X141834890Y-96856524D01*
X141605000Y-96977845D01*
X141351000Y-96977845D01*
X141121110Y-96856524D01*
X140711076Y-97026355D01*
X140282817Y-97416642D01*
X140215702Y-97559553D01*
X139988054Y-97218853D01*
X139506285Y-96896946D01*
X138938000Y-96783907D01*
X138369715Y-96896946D01*
X137887946Y-97218853D01*
X137668000Y-97548026D01*
X137448054Y-97218853D01*
X136966285Y-96896946D01*
X136398000Y-96783907D01*
X135829715Y-96896946D01*
X135347946Y-97218853D01*
X135128000Y-97548026D01*
X134908054Y-97218853D01*
X134426285Y-96896946D01*
X133858000Y-96783907D01*
X133289715Y-96896946D01*
X132807946Y-97218853D01*
X132588000Y-97548026D01*
X132368054Y-97218853D01*
X131886285Y-96896946D01*
X131318000Y-96783907D01*
X130749715Y-96896946D01*
X130267946Y-97218853D01*
X130048000Y-97548026D01*
X129828054Y-97218853D01*
X129346285Y-96896946D01*
X128778000Y-96783907D01*
X128209715Y-96896946D01*
X127727946Y-97218853D01*
X127508000Y-97548026D01*
X127288054Y-97218853D01*
X126806285Y-96896946D01*
X126238000Y-96783907D01*
X125669715Y-96896946D01*
X125187946Y-97218853D01*
X124968000Y-97548026D01*
X124748054Y-97218853D01*
X124266285Y-96896946D01*
X123698000Y-96783907D01*
X123129715Y-96896946D01*
X122647946Y-97218853D01*
X122428000Y-97548026D01*
X122208054Y-97218853D01*
X121726285Y-96896946D01*
X121158000Y-96783907D01*
X120589715Y-96896946D01*
X120107946Y-97218853D01*
X119888000Y-97548026D01*
X119668054Y-97218853D01*
X119186285Y-96896946D01*
X118618000Y-96783907D01*
X118049715Y-96896946D01*
X117567946Y-97218853D01*
X117348000Y-97548026D01*
X117128054Y-97218853D01*
X116646285Y-96896946D01*
X116078000Y-96783907D01*
X115509715Y-96896946D01*
X115027946Y-97218853D01*
X114800298Y-97559553D01*
X114733183Y-97416642D01*
X114304924Y-97026355D01*
X113894890Y-96856524D01*
X113665000Y-96977845D01*
X113665000Y-98171000D01*
X113685000Y-98171000D01*
X113685000Y-98425000D01*
X113665000Y-98425000D01*
X113665000Y-99618155D01*
X113894890Y-99739476D01*
X114304924Y-99569645D01*
X114733183Y-99179358D01*
X114800298Y-99036447D01*
X115027946Y-99377147D01*
X115318000Y-99570954D01*
X115318000Y-101981000D01*
X115375852Y-102271839D01*
X115522290Y-102491000D01*
X111820802Y-102491000D01*
X111758000Y-102428198D01*
X111758000Y-99570954D01*
X112048054Y-99377147D01*
X112275702Y-99036447D01*
X112342817Y-99179358D01*
X112771076Y-99569645D01*
X113181110Y-99739476D01*
X113411000Y-99618155D01*
X113411000Y-98425000D01*
X113391000Y-98425000D01*
X113391000Y-98171000D01*
X113411000Y-98171000D01*
X113411000Y-96977845D01*
X113181110Y-96856524D01*
X112771076Y-97026355D01*
X112342817Y-97416642D01*
X112275702Y-97559553D01*
X112048054Y-97218853D01*
X111566285Y-96896946D01*
X110998000Y-96783907D01*
X110429715Y-96896946D01*
X109947946Y-97218853D01*
X109728000Y-97548026D01*
X109508054Y-97218853D01*
X109188188Y-97005126D01*
X109160148Y-96864161D01*
X108995401Y-96617599D01*
X108516802Y-96139000D01*
X175185000Y-96139000D01*
X175185000Y-97351294D01*
X174882071Y-96897929D01*
X174239713Y-96468719D01*
X173482000Y-96318000D01*
X172724287Y-96468719D01*
X172081929Y-96897929D01*
X171652719Y-97540287D01*
X171502000Y-98298000D01*
X171652719Y-99055713D01*
X172081929Y-99698071D01*
X172724287Y-100127281D01*
X173482000Y-100278000D01*
X174239713Y-100127281D01*
X174882071Y-99698071D01*
X175185000Y-99244706D01*
X175185000Y-128339294D01*
X174882071Y-127885929D01*
X174239713Y-127456719D01*
X173482000Y-127306000D01*
X172724287Y-127456719D01*
X172081929Y-127885929D01*
X171652719Y-128528287D01*
X171502000Y-129286000D01*
X171652719Y-130043713D01*
X172081929Y-130686071D01*
X172724287Y-131115281D01*
X173366372Y-131243000D01*
X98413628Y-131243000D01*
X99055713Y-131115281D01*
X99698071Y-130686071D01*
X100127281Y-130043713D01*
X100278000Y-129286000D01*
X100127281Y-128528287D01*
X99726182Y-127928000D01*
X103277560Y-127928000D01*
X103277560Y-129628000D01*
X103321838Y-129863317D01*
X103460910Y-130079441D01*
X103673110Y-130224431D01*
X103925000Y-130275440D01*
X105625000Y-130275440D01*
X105860317Y-130231162D01*
X106076441Y-130092090D01*
X106221431Y-129879890D01*
X106235086Y-129812459D01*
X106264946Y-129857147D01*
X106746715Y-130179054D01*
X107315000Y-130292093D01*
X107883285Y-130179054D01*
X108365054Y-129857147D01*
X108686961Y-129375378D01*
X108800000Y-128807093D01*
X108800000Y-128748907D01*
X108686961Y-128180622D01*
X108365054Y-127698853D01*
X107883285Y-127376946D01*
X107315000Y-127263907D01*
X106746715Y-127376946D01*
X106264946Y-127698853D01*
X106237150Y-127740452D01*
X106228162Y-127692683D01*
X106089090Y-127476559D01*
X105876890Y-127331569D01*
X105625000Y-127280560D01*
X103925000Y-127280560D01*
X103689683Y-127324838D01*
X103473559Y-127463910D01*
X103328569Y-127676110D01*
X103277560Y-127928000D01*
X99726182Y-127928000D01*
X99698071Y-127885929D01*
X99055713Y-127456719D01*
X98298000Y-127306000D01*
X97540287Y-127456719D01*
X96897929Y-127885929D01*
X96595000Y-128339294D01*
X96595000Y-119919750D01*
X96813000Y-119919750D01*
X96813000Y-120610310D01*
X96909673Y-120843699D01*
X97088302Y-121022327D01*
X97321691Y-121119000D01*
X98012250Y-121119000D01*
X98171000Y-120960250D01*
X98171000Y-119761000D01*
X98425000Y-119761000D01*
X98425000Y-120960250D01*
X98583750Y-121119000D01*
X99274309Y-121119000D01*
X99507698Y-121022327D01*
X99686327Y-120843699D01*
X99783000Y-120610310D01*
X99783000Y-119919750D01*
X99624250Y-119761000D01*
X98425000Y-119761000D01*
X98171000Y-119761000D01*
X96971750Y-119761000D01*
X96813000Y-119919750D01*
X96595000Y-119919750D01*
X96595000Y-117094000D01*
X96783907Y-117094000D01*
X96896946Y-117662285D01*
X97218853Y-118144054D01*
X97262777Y-118173403D01*
X97088302Y-118245673D01*
X96909673Y-118424301D01*
X96813000Y-118657690D01*
X96813000Y-119348250D01*
X96971750Y-119507000D01*
X98171000Y-119507000D01*
X98171000Y-119487000D01*
X98425000Y-119487000D01*
X98425000Y-119507000D01*
X99624250Y-119507000D01*
X99783000Y-119348250D01*
X99783000Y-119018802D01*
X100078000Y-119313802D01*
X100078000Y-125349000D01*
X100135852Y-125639839D01*
X100300599Y-125886401D01*
X101316599Y-126902401D01*
X101563161Y-127067148D01*
X101854000Y-127125000D01*
X111699198Y-127125000D01*
X112802560Y-128228362D01*
X112802560Y-129628000D01*
X112846838Y-129863317D01*
X112985910Y-130079441D01*
X113198110Y-130224431D01*
X113450000Y-130275440D01*
X115150000Y-130275440D01*
X115385317Y-130231162D01*
X115601441Y-130092090D01*
X115746431Y-129879890D01*
X115760086Y-129812459D01*
X115789946Y-129857147D01*
X116271715Y-130179054D01*
X116840000Y-130292093D01*
X117408285Y-130179054D01*
X117890054Y-129857147D01*
X118211961Y-129375378D01*
X118325000Y-128807093D01*
X118325000Y-128748907D01*
X118211961Y-128180622D01*
X117890054Y-127698853D01*
X117408285Y-127376946D01*
X116840000Y-127263907D01*
X116579521Y-127315719D01*
X110234000Y-120970198D01*
X110234000Y-120942633D01*
X110557201Y-121076838D01*
X110929167Y-121077162D01*
X111272943Y-120935117D01*
X111433340Y-120775000D01*
X114554000Y-120775000D01*
X114844839Y-120717148D01*
X115091401Y-120552401D01*
X121424790Y-114219012D01*
X121597167Y-114219162D01*
X121940943Y-114077117D01*
X122204192Y-113814327D01*
X122346838Y-113470799D01*
X122347162Y-113098833D01*
X122205117Y-112755057D01*
X121942327Y-112491808D01*
X121598799Y-112349162D01*
X121226833Y-112348838D01*
X120883057Y-112490883D01*
X120619808Y-112753673D01*
X120534087Y-112960111D01*
X114239198Y-119255000D01*
X111046005Y-119255000D01*
X110930799Y-119207162D01*
X110558833Y-119206838D01*
X110234000Y-119341056D01*
X110234000Y-115624463D01*
X110266192Y-115592327D01*
X110408838Y-115248799D01*
X110409162Y-114876833D01*
X110267117Y-114533057D01*
X110004327Y-114269808D01*
X109660799Y-114127162D01*
X109288833Y-114126838D01*
X108945057Y-114268883D01*
X108681808Y-114531673D01*
X108539162Y-114875201D01*
X108538838Y-115247167D01*
X108680883Y-115590943D01*
X108714000Y-115624118D01*
X108714000Y-121285000D01*
X108771852Y-121575839D01*
X108936599Y-121822401D01*
X114394758Y-127280560D01*
X114004362Y-127280560D01*
X112551401Y-125827599D01*
X112304839Y-125662852D01*
X112014000Y-125605000D01*
X102168802Y-125605000D01*
X101598000Y-125034198D01*
X101598000Y-118999000D01*
X101540148Y-118708161D01*
X101526712Y-118688052D01*
X101620943Y-118649117D01*
X101884192Y-118386327D01*
X102026838Y-118042799D01*
X102027162Y-117670833D01*
X101885117Y-117327057D01*
X101852000Y-117293882D01*
X101852000Y-113215167D01*
X114888838Y-113215167D01*
X115030883Y-113558943D01*
X115293673Y-113822192D01*
X115318000Y-113832294D01*
X115318000Y-115021403D01*
X115295057Y-115030883D01*
X115031808Y-115293673D01*
X114889162Y-115637201D01*
X114888838Y-116009167D01*
X115030883Y-116352943D01*
X115293673Y-116616192D01*
X115637201Y-116758838D01*
X116009167Y-116759162D01*
X116352943Y-116617117D01*
X116616192Y-116354327D01*
X116758838Y-116010799D01*
X116759052Y-115765413D01*
X116780148Y-115733840D01*
X116838000Y-115443000D01*
X116838000Y-113157000D01*
X116780148Y-112866161D01*
X116780148Y-112866160D01*
X116748247Y-112818417D01*
X116617117Y-112501057D01*
X116354327Y-112237808D01*
X116010799Y-112095162D01*
X115638833Y-112094838D01*
X115295057Y-112236883D01*
X115031808Y-112499673D01*
X114889162Y-112843201D01*
X114888838Y-113215167D01*
X101852000Y-113215167D01*
X101852000Y-106103167D01*
X114380838Y-106103167D01*
X114522883Y-106446943D01*
X114785673Y-106710192D01*
X114810000Y-106720294D01*
X114810000Y-107909403D01*
X114787057Y-107918883D01*
X114523808Y-108181673D01*
X114381162Y-108525201D01*
X114380838Y-108897167D01*
X114522883Y-109240943D01*
X114785673Y-109504192D01*
X115129201Y-109646838D01*
X115501167Y-109647162D01*
X115844943Y-109505117D01*
X116108192Y-109242327D01*
X116250838Y-108898799D01*
X116251052Y-108653413D01*
X116272148Y-108621840D01*
X116330000Y-108331000D01*
X116330000Y-106045000D01*
X116320818Y-105998838D01*
X116272148Y-105754160D01*
X116240247Y-105706417D01*
X116109117Y-105389057D01*
X115846327Y-105125808D01*
X115502799Y-104983162D01*
X115130833Y-104982838D01*
X114787057Y-105124883D01*
X114523808Y-105387673D01*
X114381162Y-105731201D01*
X114380838Y-106103167D01*
X101852000Y-106103167D01*
X101852000Y-104267000D01*
X101794148Y-103976161D01*
X101629401Y-103729599D01*
X101207794Y-103307992D01*
X101123117Y-103103057D01*
X100860327Y-102839808D01*
X100516799Y-102697162D01*
X100144833Y-102696838D01*
X99801057Y-102838883D01*
X99537808Y-103101673D01*
X99395162Y-103445201D01*
X99394838Y-103817167D01*
X99536883Y-104160943D01*
X99799673Y-104424192D01*
X100143201Y-104566838D01*
X100317188Y-104566990D01*
X100332000Y-104581802D01*
X100332000Y-117293537D01*
X100299808Y-117325673D01*
X100282106Y-117368304D01*
X99763498Y-116849696D01*
X99699054Y-116525715D01*
X99377147Y-116043946D01*
X98895378Y-115722039D01*
X98327093Y-115609000D01*
X98268907Y-115609000D01*
X97700622Y-115722039D01*
X97218853Y-116043946D01*
X96896946Y-116525715D01*
X96783907Y-117094000D01*
X96595000Y-117094000D01*
X96595000Y-99244706D01*
X96897929Y-99698071D01*
X97540287Y-100127281D01*
X98298000Y-100278000D01*
X99055713Y-100127281D01*
X99698071Y-99698071D01*
X100127281Y-99055713D01*
X100221160Y-98583750D01*
X101893000Y-98583750D01*
X101893000Y-99274309D01*
X101989673Y-99507698D01*
X102168301Y-99686327D01*
X102401690Y-99783000D01*
X103092250Y-99783000D01*
X103251000Y-99624250D01*
X103251000Y-98425000D01*
X102051750Y-98425000D01*
X101893000Y-98583750D01*
X100221160Y-98583750D01*
X100278000Y-98298000D01*
X100127281Y-97540287D01*
X99698071Y-96897929D01*
X99055713Y-96468719D01*
X98298000Y-96318000D01*
X97540287Y-96468719D01*
X96897929Y-96897929D01*
X96595000Y-97351294D01*
X96595000Y-96139000D01*
X100999802Y-96139000D01*
X100919162Y-96333201D01*
M02*
