M48
;DRILL file {KiCad 4.0.6} date 09/30/17 10:47:39
;FORMAT={-:-/ absolute / metric / decimal}
FMAT,2
METRIC,TZ
T1C0.400
T2C1.000
%
G90
G05
M71
T1
X100.33Y-65.024
X100.33Y-103.632
X101.092Y-79.248
X101.092Y-117.856
X101.854Y-57.912
X101.854Y-96.52
X103.886Y-64.516
X103.886Y-103.124
X109.474Y-76.454
X109.474Y-115.062
X110.744Y-81.534
X110.744Y-120.142
X115.316Y-67.31
X115.316Y-70.104
X115.316Y-105.918
X115.316Y-108.712
X115.824Y-74.422
X115.824Y-77.216
X115.824Y-113.03
X115.824Y-115.824
X119.38Y-64.008
X119.38Y-69.85
X119.38Y-102.616
X119.38Y-108.458
X119.888Y-64.77
X119.888Y-103.378
X121.412Y-74.676
X121.412Y-113.284
X121.666Y-68.326
X121.666Y-106.934
X124.46Y-66.04
X124.46Y-104.648
X126.111Y-65.278
X126.111Y-103.886
X127.Y-66.04
X127.Y-104.648
X127.254Y-66.802
X127.254Y-105.41
X128.016Y-68.326
X128.016Y-106.934
X129.032Y-74.93
X129.032Y-113.538
X129.54Y-69.85
X129.54Y-73.406
X129.54Y-108.458
X129.54Y-112.014
X129.794Y-72.39
X129.794Y-110.998
X130.048Y-74.93
X130.048Y-113.538
X134.112Y-72.136
X134.112Y-110.744
T2
X98.298Y-78.486
X98.298Y-81.026
X98.298Y-117.094
X98.298Y-119.634
X103.378Y-59.69
X103.378Y-98.298
X104.775Y-90.17
X104.775Y-128.778
X105.918Y-59.69
X105.918Y-98.298
X107.315Y-90.17
X107.315Y-128.778
X108.458Y-59.69
X108.458Y-98.298
X110.998Y-59.69
X110.998Y-98.298
X113.538Y-59.69
X113.538Y-98.298
X114.3Y-90.17
X114.3Y-128.778
X116.078Y-59.69
X116.078Y-98.298
X116.84Y-90.17
X116.84Y-128.778
X118.618Y-59.69
X118.618Y-98.298
X121.158Y-59.69
X121.158Y-98.298
X123.698Y-59.69
X123.698Y-98.298
X126.238Y-59.69
X126.238Y-98.298
X128.778Y-59.69
X128.778Y-98.298
X131.318Y-59.69
X131.318Y-98.298
X133.858Y-59.69
X133.858Y-98.298
X135.382Y-68.834
X135.382Y-71.374
X135.382Y-73.914
X135.382Y-107.442
X135.382Y-109.982
X135.382Y-112.522
X136.398Y-59.69
X136.398Y-98.298
X137.922Y-68.834
X137.922Y-71.374
X137.922Y-73.914
X137.922Y-107.442
X137.922Y-109.982
X137.922Y-112.522
X138.938Y-59.69
X138.938Y-98.298
X141.478Y-59.69
X141.478Y-98.298
T0
M30
