G04 #@! TF.FileFunction,Soldermask,Bot*
%FSLAX46Y46*%
G04 Gerber Fmt 4.6, Leading zero omitted, Abs format (unit mm)*
G04 Created by KiCad (PCBNEW 4.0.6) date 09/30/17 10:47:32*
%MOMM*%
%LPD*%
G01*
G04 APERTURE LIST*
%ADD10C,0.100000*%
%ADD11R,2.100000X2.100000*%
%ADD12O,2.100000X2.100000*%
G04 APERTURE END LIST*
D10*
D11*
X135382000Y-107442000D03*
D12*
X137922000Y-107442000D03*
X135382000Y-109982000D03*
X137922000Y-109982000D03*
X135382000Y-112522000D03*
X137922000Y-112522000D03*
D11*
X103378000Y-98298000D03*
D12*
X105918000Y-98298000D03*
X108458000Y-98298000D03*
X110998000Y-98298000D03*
X113538000Y-98298000D03*
X116078000Y-98298000D03*
X118618000Y-98298000D03*
X121158000Y-98298000D03*
X123698000Y-98298000D03*
X126238000Y-98298000D03*
X128778000Y-98298000D03*
X131318000Y-98298000D03*
X133858000Y-98298000D03*
X136398000Y-98298000D03*
X138938000Y-98298000D03*
X141478000Y-98298000D03*
D11*
X98298000Y-119634000D03*
D12*
X98298000Y-117094000D03*
D11*
X114300000Y-128778000D03*
D12*
X116840000Y-128778000D03*
D11*
X104775000Y-128778000D03*
D12*
X107315000Y-128778000D03*
D11*
X104775000Y-90170000D03*
D12*
X107315000Y-90170000D03*
D11*
X114300000Y-90170000D03*
D12*
X116840000Y-90170000D03*
D11*
X98298000Y-81026000D03*
D12*
X98298000Y-78486000D03*
D11*
X103378000Y-59690000D03*
D12*
X105918000Y-59690000D03*
X108458000Y-59690000D03*
X110998000Y-59690000D03*
X113538000Y-59690000D03*
X116078000Y-59690000D03*
X118618000Y-59690000D03*
X121158000Y-59690000D03*
X123698000Y-59690000D03*
X126238000Y-59690000D03*
X128778000Y-59690000D03*
X131318000Y-59690000D03*
X133858000Y-59690000D03*
X136398000Y-59690000D03*
X138938000Y-59690000D03*
X141478000Y-59690000D03*
D11*
X135382000Y-68834000D03*
D12*
X137922000Y-68834000D03*
X135382000Y-71374000D03*
X137922000Y-71374000D03*
X135382000Y-73914000D03*
X137922000Y-73914000D03*
M02*
