G04 #@! TF.FileFunction,Legend,Top*
%FSLAX46Y46*%
G04 Gerber Fmt 4.6, Leading zero omitted, Abs format (unit mm)*
G04 Created by KiCad (PCBNEW 4.0.6) date 09/30/17 10:47:32*
%MOMM*%
%LPD*%
G01*
G04 APERTURE LIST*
%ADD10C,0.100000*%
%ADD11C,0.300000*%
%ADD12C,0.200000*%
%ADD13C,0.120000*%
%ADD14C,0.150000*%
G04 APERTURE END LIST*
D10*
D11*
X160996858Y-98678857D02*
X161211144Y-98750286D01*
X161282572Y-98821714D01*
X161354001Y-98964571D01*
X161354001Y-99178857D01*
X161282572Y-99321714D01*
X161211144Y-99393143D01*
X161068286Y-99464571D01*
X160496858Y-99464571D01*
X160496858Y-97964571D01*
X160996858Y-97964571D01*
X161139715Y-98036000D01*
X161211144Y-98107429D01*
X161282572Y-98250286D01*
X161282572Y-98393143D01*
X161211144Y-98536000D01*
X161139715Y-98607429D01*
X160996858Y-98678857D01*
X160496858Y-98678857D01*
X161996858Y-99464571D02*
X161996858Y-98464571D01*
X161996858Y-97964571D02*
X161925429Y-98036000D01*
X161996858Y-98107429D01*
X162068286Y-98036000D01*
X161996858Y-97964571D01*
X161996858Y-98107429D01*
X162711144Y-98464571D02*
X162711144Y-99964571D01*
X162711144Y-98536000D02*
X162854001Y-98464571D01*
X163139715Y-98464571D01*
X163282572Y-98536000D01*
X163354001Y-98607429D01*
X163425430Y-98750286D01*
X163425430Y-99178857D01*
X163354001Y-99321714D01*
X163282572Y-99393143D01*
X163139715Y-99464571D01*
X162854001Y-99464571D01*
X162711144Y-99393143D01*
X164568287Y-98678857D02*
X164782573Y-98750286D01*
X164854001Y-98821714D01*
X164925430Y-98964571D01*
X164925430Y-99178857D01*
X164854001Y-99321714D01*
X164782573Y-99393143D01*
X164639715Y-99464571D01*
X164068287Y-99464571D01*
X164068287Y-97964571D01*
X164568287Y-97964571D01*
X164711144Y-98036000D01*
X164782573Y-98107429D01*
X164854001Y-98250286D01*
X164854001Y-98393143D01*
X164782573Y-98536000D01*
X164711144Y-98607429D01*
X164568287Y-98678857D01*
X164068287Y-98678857D01*
X165568287Y-99464571D02*
X165568287Y-98464571D01*
X165568287Y-97964571D02*
X165496858Y-98036000D01*
X165568287Y-98107429D01*
X165639715Y-98036000D01*
X165568287Y-97964571D01*
X165568287Y-98107429D01*
X166854001Y-99393143D02*
X166711144Y-99464571D01*
X166425430Y-99464571D01*
X166282573Y-99393143D01*
X166211144Y-99250286D01*
X166211144Y-98678857D01*
X166282573Y-98536000D01*
X166425430Y-98464571D01*
X166711144Y-98464571D01*
X166854001Y-98536000D01*
X166925430Y-98678857D01*
X166925430Y-98821714D01*
X166211144Y-98964571D01*
X167568287Y-99464571D02*
X167568287Y-98464571D01*
X167568287Y-98750286D02*
X167639715Y-98607429D01*
X167711144Y-98536000D01*
X167854001Y-98464571D01*
X167996858Y-98464571D01*
X169068286Y-99393143D02*
X168925429Y-99464571D01*
X168639715Y-99464571D01*
X168496858Y-99393143D01*
X168425429Y-99250286D01*
X168425429Y-98678857D01*
X168496858Y-98536000D01*
X168639715Y-98464571D01*
X168925429Y-98464571D01*
X169068286Y-98536000D01*
X169139715Y-98678857D01*
X169139715Y-98821714D01*
X168425429Y-98964571D01*
X163068286Y-100514571D02*
X163568286Y-102014571D01*
X164068286Y-100514571D01*
X165354000Y-102014571D02*
X164496857Y-102014571D01*
X164925429Y-102014571D02*
X164925429Y-100514571D01*
X164782572Y-100728857D01*
X164639714Y-100871714D01*
X164496857Y-100943143D01*
X165996857Y-101871714D02*
X166068285Y-101943143D01*
X165996857Y-102014571D01*
X165925428Y-101943143D01*
X165996857Y-101871714D01*
X165996857Y-102014571D01*
X166996857Y-100514571D02*
X167139714Y-100514571D01*
X167282571Y-100586000D01*
X167354000Y-100657429D01*
X167425429Y-100800286D01*
X167496857Y-101086000D01*
X167496857Y-101443143D01*
X167425429Y-101728857D01*
X167354000Y-101871714D01*
X167282571Y-101943143D01*
X167139714Y-102014571D01*
X166996857Y-102014571D01*
X166854000Y-101943143D01*
X166782571Y-101871714D01*
X166711143Y-101728857D01*
X166639714Y-101443143D01*
X166639714Y-101086000D01*
X166711143Y-100800286D01*
X166782571Y-100657429D01*
X166854000Y-100586000D01*
X166996857Y-100514571D01*
X159711144Y-103064571D02*
X160639715Y-103064571D01*
X160139715Y-103636000D01*
X160354001Y-103636000D01*
X160496858Y-103707429D01*
X160568287Y-103778857D01*
X160639715Y-103921714D01*
X160639715Y-104278857D01*
X160568287Y-104421714D01*
X160496858Y-104493143D01*
X160354001Y-104564571D01*
X159925429Y-104564571D01*
X159782572Y-104493143D01*
X159711144Y-104421714D01*
X161568286Y-103064571D02*
X161711143Y-103064571D01*
X161854000Y-103136000D01*
X161925429Y-103207429D01*
X161996858Y-103350286D01*
X162068286Y-103636000D01*
X162068286Y-103993143D01*
X161996858Y-104278857D01*
X161925429Y-104421714D01*
X161854000Y-104493143D01*
X161711143Y-104564571D01*
X161568286Y-104564571D01*
X161425429Y-104493143D01*
X161354000Y-104421714D01*
X161282572Y-104278857D01*
X161211143Y-103993143D01*
X161211143Y-103636000D01*
X161282572Y-103350286D01*
X161354000Y-103207429D01*
X161425429Y-103136000D01*
X161568286Y-103064571D01*
X163782571Y-102993143D02*
X162496857Y-104921714D01*
X164568286Y-103064571D02*
X164711143Y-103064571D01*
X164854000Y-103136000D01*
X164925429Y-103207429D01*
X164996858Y-103350286D01*
X165068286Y-103636000D01*
X165068286Y-103993143D01*
X164996858Y-104278857D01*
X164925429Y-104421714D01*
X164854000Y-104493143D01*
X164711143Y-104564571D01*
X164568286Y-104564571D01*
X164425429Y-104493143D01*
X164354000Y-104421714D01*
X164282572Y-104278857D01*
X164211143Y-103993143D01*
X164211143Y-103636000D01*
X164282572Y-103350286D01*
X164354000Y-103207429D01*
X164425429Y-103136000D01*
X164568286Y-103064571D01*
X165782571Y-104564571D02*
X166068286Y-104564571D01*
X166211143Y-104493143D01*
X166282571Y-104421714D01*
X166425429Y-104207429D01*
X166496857Y-103921714D01*
X166496857Y-103350286D01*
X166425429Y-103207429D01*
X166354000Y-103136000D01*
X166211143Y-103064571D01*
X165925429Y-103064571D01*
X165782571Y-103136000D01*
X165711143Y-103207429D01*
X165639714Y-103350286D01*
X165639714Y-103707429D01*
X165711143Y-103850286D01*
X165782571Y-103921714D01*
X165925429Y-103993143D01*
X166211143Y-103993143D01*
X166354000Y-103921714D01*
X166425429Y-103850286D01*
X166496857Y-103707429D01*
X168211142Y-102993143D02*
X166925428Y-104921714D01*
X169496857Y-104564571D02*
X168639714Y-104564571D01*
X169068286Y-104564571D02*
X169068286Y-103064571D01*
X168925429Y-103278857D01*
X168782571Y-103421714D01*
X168639714Y-103493143D01*
X169996857Y-103064571D02*
X170996857Y-103064571D01*
X170354000Y-104564571D01*
X156854000Y-109664571D02*
X156854000Y-108164571D01*
X157711143Y-109664571D01*
X157711143Y-108164571D01*
X158425429Y-109664571D02*
X158425429Y-108664571D01*
X158425429Y-108164571D02*
X158354000Y-108236000D01*
X158425429Y-108307429D01*
X158496857Y-108236000D01*
X158425429Y-108164571D01*
X158425429Y-108307429D01*
X159782572Y-109593143D02*
X159639715Y-109664571D01*
X159354001Y-109664571D01*
X159211143Y-109593143D01*
X159139715Y-109521714D01*
X159068286Y-109378857D01*
X159068286Y-108950286D01*
X159139715Y-108807429D01*
X159211143Y-108736000D01*
X159354001Y-108664571D01*
X159639715Y-108664571D01*
X159782572Y-108736000D01*
X160639715Y-109664571D02*
X160496857Y-109593143D01*
X160425429Y-109521714D01*
X160354000Y-109378857D01*
X160354000Y-108950286D01*
X160425429Y-108807429D01*
X160496857Y-108736000D01*
X160639715Y-108664571D01*
X160854000Y-108664571D01*
X160996857Y-108736000D01*
X161068286Y-108807429D01*
X161139715Y-108950286D01*
X161139715Y-109378857D01*
X161068286Y-109521714D01*
X160996857Y-109593143D01*
X160854000Y-109664571D01*
X160639715Y-109664571D01*
X161996858Y-109664571D02*
X161854000Y-109593143D01*
X161782572Y-109450286D01*
X161782572Y-108164571D01*
X163211143Y-109664571D02*
X163211143Y-108878857D01*
X163139714Y-108736000D01*
X162996857Y-108664571D01*
X162711143Y-108664571D01*
X162568286Y-108736000D01*
X163211143Y-109593143D02*
X163068286Y-109664571D01*
X162711143Y-109664571D01*
X162568286Y-109593143D01*
X162496857Y-109450286D01*
X162496857Y-109307429D01*
X162568286Y-109164571D01*
X162711143Y-109093143D01*
X163068286Y-109093143D01*
X163211143Y-109021714D01*
X163854000Y-109593143D02*
X163996857Y-109664571D01*
X164282572Y-109664571D01*
X164425429Y-109593143D01*
X164496857Y-109450286D01*
X164496857Y-109378857D01*
X164425429Y-109236000D01*
X164282572Y-109164571D01*
X164068286Y-109164571D01*
X163925429Y-109093143D01*
X163854000Y-108950286D01*
X163854000Y-108878857D01*
X163925429Y-108736000D01*
X164068286Y-108664571D01*
X164282572Y-108664571D01*
X164425429Y-108736000D01*
X167068286Y-108236000D02*
X166925429Y-108164571D01*
X166711143Y-108164571D01*
X166496858Y-108236000D01*
X166354000Y-108378857D01*
X166282572Y-108521714D01*
X166211143Y-108807429D01*
X166211143Y-109021714D01*
X166282572Y-109307429D01*
X166354000Y-109450286D01*
X166496858Y-109593143D01*
X166711143Y-109664571D01*
X166854000Y-109664571D01*
X167068286Y-109593143D01*
X167139715Y-109521714D01*
X167139715Y-109021714D01*
X166854000Y-109021714D01*
X168425429Y-109664571D02*
X168425429Y-108878857D01*
X168354000Y-108736000D01*
X168211143Y-108664571D01*
X167925429Y-108664571D01*
X167782572Y-108736000D01*
X168425429Y-109593143D02*
X168282572Y-109664571D01*
X167925429Y-109664571D01*
X167782572Y-109593143D01*
X167711143Y-109450286D01*
X167711143Y-109307429D01*
X167782572Y-109164571D01*
X167925429Y-109093143D01*
X168282572Y-109093143D01*
X168425429Y-109021714D01*
X169782572Y-108664571D02*
X169782572Y-109878857D01*
X169711143Y-110021714D01*
X169639715Y-110093143D01*
X169496858Y-110164571D01*
X169282572Y-110164571D01*
X169139715Y-110093143D01*
X169782572Y-109593143D02*
X169639715Y-109664571D01*
X169354001Y-109664571D01*
X169211143Y-109593143D01*
X169139715Y-109521714D01*
X169068286Y-109378857D01*
X169068286Y-108950286D01*
X169139715Y-108807429D01*
X169211143Y-108736000D01*
X169354001Y-108664571D01*
X169639715Y-108664571D01*
X169782572Y-108736000D01*
X170496858Y-108664571D02*
X170496858Y-109664571D01*
X170496858Y-108807429D02*
X170568286Y-108736000D01*
X170711144Y-108664571D01*
X170925429Y-108664571D01*
X171068286Y-108736000D01*
X171139715Y-108878857D01*
X171139715Y-109664571D01*
X172068287Y-109664571D02*
X171925429Y-109593143D01*
X171854001Y-109521714D01*
X171782572Y-109378857D01*
X171782572Y-108950286D01*
X171854001Y-108807429D01*
X171925429Y-108736000D01*
X172068287Y-108664571D01*
X172282572Y-108664571D01*
X172425429Y-108736000D01*
X172496858Y-108807429D01*
X172568287Y-108950286D01*
X172568287Y-109378857D01*
X172496858Y-109521714D01*
X172425429Y-109593143D01*
X172282572Y-109664571D01*
X172068287Y-109664571D01*
X173211144Y-108664571D02*
X173211144Y-109664571D01*
X173211144Y-108807429D02*
X173282572Y-108736000D01*
X173425430Y-108664571D01*
X173639715Y-108664571D01*
X173782572Y-108736000D01*
X173854001Y-108878857D01*
X173854001Y-109664571D01*
X160996858Y-59816857D02*
X161211144Y-59888286D01*
X161282572Y-59959714D01*
X161354001Y-60102571D01*
X161354001Y-60316857D01*
X161282572Y-60459714D01*
X161211144Y-60531143D01*
X161068286Y-60602571D01*
X160496858Y-60602571D01*
X160496858Y-59102571D01*
X160996858Y-59102571D01*
X161139715Y-59174000D01*
X161211144Y-59245429D01*
X161282572Y-59388286D01*
X161282572Y-59531143D01*
X161211144Y-59674000D01*
X161139715Y-59745429D01*
X160996858Y-59816857D01*
X160496858Y-59816857D01*
X161996858Y-60602571D02*
X161996858Y-59602571D01*
X161996858Y-59102571D02*
X161925429Y-59174000D01*
X161996858Y-59245429D01*
X162068286Y-59174000D01*
X161996858Y-59102571D01*
X161996858Y-59245429D01*
X162711144Y-59602571D02*
X162711144Y-61102571D01*
X162711144Y-59674000D02*
X162854001Y-59602571D01*
X163139715Y-59602571D01*
X163282572Y-59674000D01*
X163354001Y-59745429D01*
X163425430Y-59888286D01*
X163425430Y-60316857D01*
X163354001Y-60459714D01*
X163282572Y-60531143D01*
X163139715Y-60602571D01*
X162854001Y-60602571D01*
X162711144Y-60531143D01*
X164568287Y-59816857D02*
X164782573Y-59888286D01*
X164854001Y-59959714D01*
X164925430Y-60102571D01*
X164925430Y-60316857D01*
X164854001Y-60459714D01*
X164782573Y-60531143D01*
X164639715Y-60602571D01*
X164068287Y-60602571D01*
X164068287Y-59102571D01*
X164568287Y-59102571D01*
X164711144Y-59174000D01*
X164782573Y-59245429D01*
X164854001Y-59388286D01*
X164854001Y-59531143D01*
X164782573Y-59674000D01*
X164711144Y-59745429D01*
X164568287Y-59816857D01*
X164068287Y-59816857D01*
X165568287Y-60602571D02*
X165568287Y-59602571D01*
X165568287Y-59102571D02*
X165496858Y-59174000D01*
X165568287Y-59245429D01*
X165639715Y-59174000D01*
X165568287Y-59102571D01*
X165568287Y-59245429D01*
X166854001Y-60531143D02*
X166711144Y-60602571D01*
X166425430Y-60602571D01*
X166282573Y-60531143D01*
X166211144Y-60388286D01*
X166211144Y-59816857D01*
X166282573Y-59674000D01*
X166425430Y-59602571D01*
X166711144Y-59602571D01*
X166854001Y-59674000D01*
X166925430Y-59816857D01*
X166925430Y-59959714D01*
X166211144Y-60102571D01*
X167568287Y-60602571D02*
X167568287Y-59602571D01*
X167568287Y-59888286D02*
X167639715Y-59745429D01*
X167711144Y-59674000D01*
X167854001Y-59602571D01*
X167996858Y-59602571D01*
X169068286Y-60531143D02*
X168925429Y-60602571D01*
X168639715Y-60602571D01*
X168496858Y-60531143D01*
X168425429Y-60388286D01*
X168425429Y-59816857D01*
X168496858Y-59674000D01*
X168639715Y-59602571D01*
X168925429Y-59602571D01*
X169068286Y-59674000D01*
X169139715Y-59816857D01*
X169139715Y-59959714D01*
X168425429Y-60102571D01*
X163068286Y-61652571D02*
X163568286Y-63152571D01*
X164068286Y-61652571D01*
X165354000Y-63152571D02*
X164496857Y-63152571D01*
X164925429Y-63152571D02*
X164925429Y-61652571D01*
X164782572Y-61866857D01*
X164639714Y-62009714D01*
X164496857Y-62081143D01*
X165996857Y-63009714D02*
X166068285Y-63081143D01*
X165996857Y-63152571D01*
X165925428Y-63081143D01*
X165996857Y-63009714D01*
X165996857Y-63152571D01*
X166996857Y-61652571D02*
X167139714Y-61652571D01*
X167282571Y-61724000D01*
X167354000Y-61795429D01*
X167425429Y-61938286D01*
X167496857Y-62224000D01*
X167496857Y-62581143D01*
X167425429Y-62866857D01*
X167354000Y-63009714D01*
X167282571Y-63081143D01*
X167139714Y-63152571D01*
X166996857Y-63152571D01*
X166854000Y-63081143D01*
X166782571Y-63009714D01*
X166711143Y-62866857D01*
X166639714Y-62581143D01*
X166639714Y-62224000D01*
X166711143Y-61938286D01*
X166782571Y-61795429D01*
X166854000Y-61724000D01*
X166996857Y-61652571D01*
X159711144Y-64202571D02*
X160639715Y-64202571D01*
X160139715Y-64774000D01*
X160354001Y-64774000D01*
X160496858Y-64845429D01*
X160568287Y-64916857D01*
X160639715Y-65059714D01*
X160639715Y-65416857D01*
X160568287Y-65559714D01*
X160496858Y-65631143D01*
X160354001Y-65702571D01*
X159925429Y-65702571D01*
X159782572Y-65631143D01*
X159711144Y-65559714D01*
X161568286Y-64202571D02*
X161711143Y-64202571D01*
X161854000Y-64274000D01*
X161925429Y-64345429D01*
X161996858Y-64488286D01*
X162068286Y-64774000D01*
X162068286Y-65131143D01*
X161996858Y-65416857D01*
X161925429Y-65559714D01*
X161854000Y-65631143D01*
X161711143Y-65702571D01*
X161568286Y-65702571D01*
X161425429Y-65631143D01*
X161354000Y-65559714D01*
X161282572Y-65416857D01*
X161211143Y-65131143D01*
X161211143Y-64774000D01*
X161282572Y-64488286D01*
X161354000Y-64345429D01*
X161425429Y-64274000D01*
X161568286Y-64202571D01*
X163782571Y-64131143D02*
X162496857Y-66059714D01*
X164568286Y-64202571D02*
X164711143Y-64202571D01*
X164854000Y-64274000D01*
X164925429Y-64345429D01*
X164996858Y-64488286D01*
X165068286Y-64774000D01*
X165068286Y-65131143D01*
X164996858Y-65416857D01*
X164925429Y-65559714D01*
X164854000Y-65631143D01*
X164711143Y-65702571D01*
X164568286Y-65702571D01*
X164425429Y-65631143D01*
X164354000Y-65559714D01*
X164282572Y-65416857D01*
X164211143Y-65131143D01*
X164211143Y-64774000D01*
X164282572Y-64488286D01*
X164354000Y-64345429D01*
X164425429Y-64274000D01*
X164568286Y-64202571D01*
X165782571Y-65702571D02*
X166068286Y-65702571D01*
X166211143Y-65631143D01*
X166282571Y-65559714D01*
X166425429Y-65345429D01*
X166496857Y-65059714D01*
X166496857Y-64488286D01*
X166425429Y-64345429D01*
X166354000Y-64274000D01*
X166211143Y-64202571D01*
X165925429Y-64202571D01*
X165782571Y-64274000D01*
X165711143Y-64345429D01*
X165639714Y-64488286D01*
X165639714Y-64845429D01*
X165711143Y-64988286D01*
X165782571Y-65059714D01*
X165925429Y-65131143D01*
X166211143Y-65131143D01*
X166354000Y-65059714D01*
X166425429Y-64988286D01*
X166496857Y-64845429D01*
X168211142Y-64131143D02*
X166925428Y-66059714D01*
X169496857Y-65702571D02*
X168639714Y-65702571D01*
X169068286Y-65702571D02*
X169068286Y-64202571D01*
X168925429Y-64416857D01*
X168782571Y-64559714D01*
X168639714Y-64631143D01*
X169996857Y-64202571D02*
X170996857Y-64202571D01*
X170354000Y-65702571D01*
X156854000Y-70802571D02*
X156854000Y-69302571D01*
X157711143Y-70802571D01*
X157711143Y-69302571D01*
X158425429Y-70802571D02*
X158425429Y-69802571D01*
X158425429Y-69302571D02*
X158354000Y-69374000D01*
X158425429Y-69445429D01*
X158496857Y-69374000D01*
X158425429Y-69302571D01*
X158425429Y-69445429D01*
X159782572Y-70731143D02*
X159639715Y-70802571D01*
X159354001Y-70802571D01*
X159211143Y-70731143D01*
X159139715Y-70659714D01*
X159068286Y-70516857D01*
X159068286Y-70088286D01*
X159139715Y-69945429D01*
X159211143Y-69874000D01*
X159354001Y-69802571D01*
X159639715Y-69802571D01*
X159782572Y-69874000D01*
X160639715Y-70802571D02*
X160496857Y-70731143D01*
X160425429Y-70659714D01*
X160354000Y-70516857D01*
X160354000Y-70088286D01*
X160425429Y-69945429D01*
X160496857Y-69874000D01*
X160639715Y-69802571D01*
X160854000Y-69802571D01*
X160996857Y-69874000D01*
X161068286Y-69945429D01*
X161139715Y-70088286D01*
X161139715Y-70516857D01*
X161068286Y-70659714D01*
X160996857Y-70731143D01*
X160854000Y-70802571D01*
X160639715Y-70802571D01*
X161996858Y-70802571D02*
X161854000Y-70731143D01*
X161782572Y-70588286D01*
X161782572Y-69302571D01*
X163211143Y-70802571D02*
X163211143Y-70016857D01*
X163139714Y-69874000D01*
X162996857Y-69802571D01*
X162711143Y-69802571D01*
X162568286Y-69874000D01*
X163211143Y-70731143D02*
X163068286Y-70802571D01*
X162711143Y-70802571D01*
X162568286Y-70731143D01*
X162496857Y-70588286D01*
X162496857Y-70445429D01*
X162568286Y-70302571D01*
X162711143Y-70231143D01*
X163068286Y-70231143D01*
X163211143Y-70159714D01*
X163854000Y-70731143D02*
X163996857Y-70802571D01*
X164282572Y-70802571D01*
X164425429Y-70731143D01*
X164496857Y-70588286D01*
X164496857Y-70516857D01*
X164425429Y-70374000D01*
X164282572Y-70302571D01*
X164068286Y-70302571D01*
X163925429Y-70231143D01*
X163854000Y-70088286D01*
X163854000Y-70016857D01*
X163925429Y-69874000D01*
X164068286Y-69802571D01*
X164282572Y-69802571D01*
X164425429Y-69874000D01*
X167068286Y-69374000D02*
X166925429Y-69302571D01*
X166711143Y-69302571D01*
X166496858Y-69374000D01*
X166354000Y-69516857D01*
X166282572Y-69659714D01*
X166211143Y-69945429D01*
X166211143Y-70159714D01*
X166282572Y-70445429D01*
X166354000Y-70588286D01*
X166496858Y-70731143D01*
X166711143Y-70802571D01*
X166854000Y-70802571D01*
X167068286Y-70731143D01*
X167139715Y-70659714D01*
X167139715Y-70159714D01*
X166854000Y-70159714D01*
X168425429Y-70802571D02*
X168425429Y-70016857D01*
X168354000Y-69874000D01*
X168211143Y-69802571D01*
X167925429Y-69802571D01*
X167782572Y-69874000D01*
X168425429Y-70731143D02*
X168282572Y-70802571D01*
X167925429Y-70802571D01*
X167782572Y-70731143D01*
X167711143Y-70588286D01*
X167711143Y-70445429D01*
X167782572Y-70302571D01*
X167925429Y-70231143D01*
X168282572Y-70231143D01*
X168425429Y-70159714D01*
X169782572Y-69802571D02*
X169782572Y-71016857D01*
X169711143Y-71159714D01*
X169639715Y-71231143D01*
X169496858Y-71302571D01*
X169282572Y-71302571D01*
X169139715Y-71231143D01*
X169782572Y-70731143D02*
X169639715Y-70802571D01*
X169354001Y-70802571D01*
X169211143Y-70731143D01*
X169139715Y-70659714D01*
X169068286Y-70516857D01*
X169068286Y-70088286D01*
X169139715Y-69945429D01*
X169211143Y-69874000D01*
X169354001Y-69802571D01*
X169639715Y-69802571D01*
X169782572Y-69874000D01*
X170496858Y-69802571D02*
X170496858Y-70802571D01*
X170496858Y-69945429D02*
X170568286Y-69874000D01*
X170711144Y-69802571D01*
X170925429Y-69802571D01*
X171068286Y-69874000D01*
X171139715Y-70016857D01*
X171139715Y-70802571D01*
X172068287Y-70802571D02*
X171925429Y-70731143D01*
X171854001Y-70659714D01*
X171782572Y-70516857D01*
X171782572Y-70088286D01*
X171854001Y-69945429D01*
X171925429Y-69874000D01*
X172068287Y-69802571D01*
X172282572Y-69802571D01*
X172425429Y-69874000D01*
X172496858Y-69945429D01*
X172568287Y-70088286D01*
X172568287Y-70516857D01*
X172496858Y-70659714D01*
X172425429Y-70731143D01*
X172282572Y-70802571D01*
X172068287Y-70802571D01*
X173211144Y-69802571D02*
X173211144Y-70802571D01*
X173211144Y-69945429D02*
X173282572Y-69874000D01*
X173425430Y-69802571D01*
X173639715Y-69802571D01*
X173782572Y-69874000D01*
X173854001Y-70016857D01*
X173854001Y-70802571D01*
D12*
X96012000Y-95885000D02*
X175768000Y-95885000D01*
X175768000Y-93472000D02*
X96012000Y-93472000D01*
D13*
X134052000Y-113852000D02*
X139252000Y-113852000D01*
X134052000Y-108712000D02*
X134052000Y-113852000D01*
X139252000Y-106112000D02*
X139252000Y-113852000D01*
X134052000Y-108712000D02*
X136652000Y-108712000D01*
X136652000Y-108712000D02*
X136652000Y-106112000D01*
X136652000Y-106112000D02*
X139252000Y-106112000D01*
X134052000Y-107442000D02*
X134052000Y-106112000D01*
X134052000Y-106112000D02*
X135382000Y-106112000D01*
X142808000Y-99628000D02*
X142808000Y-96968000D01*
X104648000Y-99628000D02*
X142808000Y-99628000D01*
X104648000Y-96968000D02*
X142808000Y-96968000D01*
X104648000Y-99628000D02*
X104648000Y-96968000D01*
X103378000Y-99628000D02*
X102048000Y-99628000D01*
X102048000Y-99628000D02*
X102048000Y-98298000D01*
X99628000Y-115764000D02*
X96968000Y-115764000D01*
X99628000Y-118364000D02*
X99628000Y-115764000D01*
X96968000Y-118364000D02*
X96968000Y-115764000D01*
X99628000Y-118364000D02*
X96968000Y-118364000D01*
X99628000Y-119634000D02*
X99628000Y-120964000D01*
X99628000Y-120964000D02*
X98298000Y-120964000D01*
D14*
X127085000Y-112861000D02*
X127085000Y-112436000D01*
X121835000Y-112861000D02*
X121835000Y-112351000D01*
X121835000Y-107611000D02*
X121835000Y-108121000D01*
X127085000Y-107611000D02*
X127085000Y-108121000D01*
X127085000Y-112861000D02*
X126575000Y-112861000D01*
X127085000Y-107611000D02*
X126575000Y-107611000D01*
X121835000Y-107611000D02*
X122345000Y-107611000D01*
X121835000Y-112861000D02*
X122345000Y-112861000D01*
X127085000Y-112436000D02*
X128310000Y-112436000D01*
X101955600Y-109728000D02*
X101955600Y-108153200D01*
X101955600Y-109728000D02*
X99060000Y-109728000D01*
X101955600Y-108153200D02*
X99060000Y-108153200D01*
X99060000Y-108153200D02*
X99060000Y-109728000D01*
D13*
X118170000Y-130108000D02*
X118170000Y-127448000D01*
X115570000Y-130108000D02*
X118170000Y-130108000D01*
X115570000Y-127448000D02*
X118170000Y-127448000D01*
X115570000Y-130108000D02*
X115570000Y-127448000D01*
X114300000Y-130108000D02*
X112970000Y-130108000D01*
X112970000Y-130108000D02*
X112970000Y-128778000D01*
X97770000Y-101072000D02*
X102890000Y-101072000D01*
X97770000Y-106192000D02*
X102890000Y-106192000D01*
X97770000Y-101072000D02*
X97770000Y-102452000D01*
X97770000Y-104812000D02*
X97770000Y-106192000D01*
X102890000Y-101072000D02*
X102890000Y-101652000D01*
X102890000Y-103312000D02*
X102890000Y-103952000D01*
X102890000Y-105612000D02*
X102890000Y-106192000D01*
X101155218Y-104516938D02*
G75*
G02X100330000Y-104842000I-825218J884938D01*
G01*
X101488610Y-103297149D02*
G75*
G02X101490000Y-103962000I-1158610J-334851D01*
G01*
X99510042Y-102742636D02*
G75*
G02X101160000Y-102752000I819958J-889364D01*
G01*
X100351194Y-104848778D02*
G75*
G02X99500000Y-104522000I-21194J1216778D01*
G01*
X106334000Y-104784000D02*
X107534000Y-104784000D01*
X107534000Y-106544000D02*
X106334000Y-106544000D01*
X111668000Y-104784000D02*
X112868000Y-104784000D01*
X112868000Y-106544000D02*
X111668000Y-106544000D01*
X106334000Y-101482000D02*
X107534000Y-101482000D01*
X107534000Y-103242000D02*
X106334000Y-103242000D01*
X101438000Y-113910000D02*
X100238000Y-113910000D01*
X100238000Y-112150000D02*
X101438000Y-112150000D01*
X108148000Y-123188000D02*
X109078000Y-123188000D01*
X111308000Y-123188000D02*
X110378000Y-123188000D01*
X111308000Y-123188000D02*
X111308000Y-121028000D01*
X108148000Y-123188000D02*
X108148000Y-121728000D01*
X108645000Y-130108000D02*
X108645000Y-127448000D01*
X106045000Y-130108000D02*
X108645000Y-130108000D01*
X106045000Y-127448000D02*
X108645000Y-127448000D01*
X106045000Y-130108000D02*
X106045000Y-127448000D01*
X104775000Y-130108000D02*
X103445000Y-130108000D01*
X103445000Y-130108000D02*
X103445000Y-128778000D01*
X112868000Y-117212000D02*
X111668000Y-117212000D01*
X111668000Y-115452000D02*
X112868000Y-115452000D01*
X105248000Y-118990000D02*
X104048000Y-118990000D01*
X104048000Y-117230000D02*
X105248000Y-117230000D01*
X112768000Y-111926000D02*
X111768000Y-111926000D01*
X111768000Y-113626000D02*
X112768000Y-113626000D01*
X112768000Y-108370000D02*
X111768000Y-108370000D01*
X111768000Y-110070000D02*
X112768000Y-110070000D01*
X107434000Y-108370000D02*
X106434000Y-108370000D01*
X106434000Y-110070000D02*
X107434000Y-110070000D01*
X106434000Y-113626000D02*
X107434000Y-113626000D01*
X107434000Y-111926000D02*
X106434000Y-111926000D01*
X106434000Y-75018000D02*
X107434000Y-75018000D01*
X107434000Y-73318000D02*
X106434000Y-73318000D01*
X107434000Y-69762000D02*
X106434000Y-69762000D01*
X106434000Y-71462000D02*
X107434000Y-71462000D01*
X112768000Y-69762000D02*
X111768000Y-69762000D01*
X111768000Y-71462000D02*
X112768000Y-71462000D01*
X112768000Y-73318000D02*
X111768000Y-73318000D01*
X111768000Y-75018000D02*
X112768000Y-75018000D01*
X105248000Y-80382000D02*
X104048000Y-80382000D01*
X104048000Y-78622000D02*
X105248000Y-78622000D01*
X112868000Y-78604000D02*
X111668000Y-78604000D01*
X111668000Y-76844000D02*
X112868000Y-76844000D01*
X108645000Y-91500000D02*
X108645000Y-88840000D01*
X106045000Y-91500000D02*
X108645000Y-91500000D01*
X106045000Y-88840000D02*
X108645000Y-88840000D01*
X106045000Y-91500000D02*
X106045000Y-88840000D01*
X104775000Y-91500000D02*
X103445000Y-91500000D01*
X103445000Y-91500000D02*
X103445000Y-90170000D01*
X108148000Y-84580000D02*
X109078000Y-84580000D01*
X111308000Y-84580000D02*
X110378000Y-84580000D01*
X111308000Y-84580000D02*
X111308000Y-82420000D01*
X108148000Y-84580000D02*
X108148000Y-83120000D01*
X101438000Y-75302000D02*
X100238000Y-75302000D01*
X100238000Y-73542000D02*
X101438000Y-73542000D01*
X106334000Y-62874000D02*
X107534000Y-62874000D01*
X107534000Y-64634000D02*
X106334000Y-64634000D01*
X111668000Y-66176000D02*
X112868000Y-66176000D01*
X112868000Y-67936000D02*
X111668000Y-67936000D01*
X106334000Y-66176000D02*
X107534000Y-66176000D01*
X107534000Y-67936000D02*
X106334000Y-67936000D01*
X97770000Y-62464000D02*
X102890000Y-62464000D01*
X97770000Y-67584000D02*
X102890000Y-67584000D01*
X97770000Y-62464000D02*
X97770000Y-63844000D01*
X97770000Y-66204000D02*
X97770000Y-67584000D01*
X102890000Y-62464000D02*
X102890000Y-63044000D01*
X102890000Y-64704000D02*
X102890000Y-65344000D01*
X102890000Y-67004000D02*
X102890000Y-67584000D01*
X101155218Y-65908938D02*
G75*
G02X100330000Y-66234000I-825218J884938D01*
G01*
X101488610Y-64689149D02*
G75*
G02X101490000Y-65354000I-1158610J-334851D01*
G01*
X99510042Y-64134636D02*
G75*
G02X101160000Y-64144000I819958J-889364D01*
G01*
X100351194Y-66240778D02*
G75*
G02X99500000Y-65914000I-21194J1216778D01*
G01*
X118170000Y-91500000D02*
X118170000Y-88840000D01*
X115570000Y-91500000D02*
X118170000Y-91500000D01*
X115570000Y-88840000D02*
X118170000Y-88840000D01*
X115570000Y-91500000D02*
X115570000Y-88840000D01*
X114300000Y-91500000D02*
X112970000Y-91500000D01*
X112970000Y-91500000D02*
X112970000Y-90170000D01*
D14*
X101955600Y-71120000D02*
X101955600Y-69545200D01*
X101955600Y-71120000D02*
X99060000Y-71120000D01*
X101955600Y-69545200D02*
X99060000Y-69545200D01*
X99060000Y-69545200D02*
X99060000Y-71120000D01*
X127085000Y-74253000D02*
X127085000Y-73828000D01*
X121835000Y-74253000D02*
X121835000Y-73743000D01*
X121835000Y-69003000D02*
X121835000Y-69513000D01*
X127085000Y-69003000D02*
X127085000Y-69513000D01*
X127085000Y-74253000D02*
X126575000Y-74253000D01*
X127085000Y-69003000D02*
X126575000Y-69003000D01*
X121835000Y-69003000D02*
X122345000Y-69003000D01*
X121835000Y-74253000D02*
X122345000Y-74253000D01*
X127085000Y-73828000D02*
X128310000Y-73828000D01*
D13*
X99628000Y-77156000D02*
X96968000Y-77156000D01*
X99628000Y-79756000D02*
X99628000Y-77156000D01*
X96968000Y-79756000D02*
X96968000Y-77156000D01*
X99628000Y-79756000D02*
X96968000Y-79756000D01*
X99628000Y-81026000D02*
X99628000Y-82356000D01*
X99628000Y-82356000D02*
X98298000Y-82356000D01*
X142808000Y-61020000D02*
X142808000Y-58360000D01*
X104648000Y-61020000D02*
X142808000Y-61020000D01*
X104648000Y-58360000D02*
X142808000Y-58360000D01*
X104648000Y-61020000D02*
X104648000Y-58360000D01*
X103378000Y-61020000D02*
X102048000Y-61020000D01*
X102048000Y-61020000D02*
X102048000Y-59690000D01*
X134052000Y-75244000D02*
X139252000Y-75244000D01*
X134052000Y-70104000D02*
X134052000Y-75244000D01*
X139252000Y-67504000D02*
X139252000Y-75244000D01*
X134052000Y-70104000D02*
X136652000Y-70104000D01*
X136652000Y-70104000D02*
X136652000Y-67504000D01*
X136652000Y-67504000D02*
X139252000Y-67504000D01*
X134052000Y-68834000D02*
X134052000Y-67504000D01*
X134052000Y-67504000D02*
X135382000Y-67504000D01*
D14*
X135175810Y-105564381D02*
X135175810Y-104564381D01*
X135604381Y-105516762D02*
X135747238Y-105564381D01*
X135985334Y-105564381D01*
X136080572Y-105516762D01*
X136128191Y-105469143D01*
X136175810Y-105373905D01*
X136175810Y-105278667D01*
X136128191Y-105183429D01*
X136080572Y-105135810D01*
X135985334Y-105088190D01*
X135794857Y-105040571D01*
X135699619Y-104992952D01*
X135652000Y-104945333D01*
X135604381Y-104850095D01*
X135604381Y-104754857D01*
X135652000Y-104659619D01*
X135699619Y-104612000D01*
X135794857Y-104564381D01*
X136032953Y-104564381D01*
X136175810Y-104612000D01*
X137175810Y-105469143D02*
X137128191Y-105516762D01*
X136985334Y-105564381D01*
X136890096Y-105564381D01*
X136747238Y-105516762D01*
X136652000Y-105421524D01*
X136604381Y-105326286D01*
X136556762Y-105135810D01*
X136556762Y-104992952D01*
X136604381Y-104802476D01*
X136652000Y-104707238D01*
X136747238Y-104612000D01*
X136890096Y-104564381D01*
X136985334Y-104564381D01*
X137128191Y-104612000D01*
X137175810Y-104659619D01*
X137604381Y-105564381D02*
X137604381Y-104564381D01*
X137985334Y-104564381D01*
X138080572Y-104612000D01*
X138128191Y-104659619D01*
X138175810Y-104754857D01*
X138175810Y-104897714D01*
X138128191Y-104992952D01*
X138080572Y-105040571D01*
X137985334Y-105088190D01*
X137604381Y-105088190D01*
X101500381Y-99512286D02*
X100500381Y-99512286D01*
X100500381Y-99274191D01*
X100548000Y-99131333D01*
X100643238Y-99036095D01*
X100738476Y-98988476D01*
X100928952Y-98940857D01*
X101071810Y-98940857D01*
X101262286Y-98988476D01*
X101357524Y-99036095D01*
X101452762Y-99131333D01*
X101500381Y-99274191D01*
X101500381Y-99512286D01*
X101452762Y-98559905D02*
X101500381Y-98417048D01*
X101500381Y-98178952D01*
X101452762Y-98083714D01*
X101405143Y-98036095D01*
X101309905Y-97988476D01*
X101214667Y-97988476D01*
X101119429Y-98036095D01*
X101071810Y-98083714D01*
X101024190Y-98178952D01*
X100976571Y-98369429D01*
X100928952Y-98464667D01*
X100881333Y-98512286D01*
X100786095Y-98559905D01*
X100690857Y-98559905D01*
X100595619Y-98512286D01*
X100548000Y-98464667D01*
X100500381Y-98369429D01*
X100500381Y-98131333D01*
X100548000Y-97988476D01*
X101500381Y-97036095D02*
X101500381Y-97607524D01*
X101500381Y-97321810D02*
X100500381Y-97321810D01*
X100643238Y-97417048D01*
X100738476Y-97512286D01*
X100786095Y-97607524D01*
X97964667Y-121416381D02*
X97964667Y-122130667D01*
X97917047Y-122273524D01*
X97821809Y-122368762D01*
X97678952Y-122416381D01*
X97583714Y-122416381D01*
X98964667Y-122416381D02*
X98393238Y-122416381D01*
X98678952Y-122416381D02*
X98678952Y-121416381D01*
X98583714Y-121559238D01*
X98488476Y-121654476D01*
X98393238Y-121702095D01*
X123698095Y-114538381D02*
X123698095Y-115347905D01*
X123745714Y-115443143D01*
X123793333Y-115490762D01*
X123888571Y-115538381D01*
X124079048Y-115538381D01*
X124174286Y-115490762D01*
X124221905Y-115443143D01*
X124269524Y-115347905D01*
X124269524Y-114538381D01*
X125269524Y-115538381D02*
X124698095Y-115538381D01*
X124983809Y-115538381D02*
X124983809Y-114538381D01*
X124888571Y-114681238D01*
X124793333Y-114776476D01*
X124698095Y-114824095D01*
X97496381Y-109473905D02*
X98305905Y-109473905D01*
X98401143Y-109426286D01*
X98448762Y-109378667D01*
X98496381Y-109283429D01*
X98496381Y-109092952D01*
X98448762Y-108997714D01*
X98401143Y-108950095D01*
X98305905Y-108902476D01*
X97496381Y-108902476D01*
X97591619Y-108473905D02*
X97544000Y-108426286D01*
X97496381Y-108331048D01*
X97496381Y-108092952D01*
X97544000Y-107997714D01*
X97591619Y-107950095D01*
X97686857Y-107902476D01*
X97782095Y-107902476D01*
X97924952Y-107950095D01*
X98496381Y-108521524D01*
X98496381Y-107902476D01*
X112374762Y-130111333D02*
X112422381Y-129968476D01*
X112422381Y-129730380D01*
X112374762Y-129635142D01*
X112327143Y-129587523D01*
X112231905Y-129539904D01*
X112136667Y-129539904D01*
X112041429Y-129587523D01*
X111993810Y-129635142D01*
X111946190Y-129730380D01*
X111898571Y-129920857D01*
X111850952Y-130016095D01*
X111803333Y-130063714D01*
X111708095Y-130111333D01*
X111612857Y-130111333D01*
X111517619Y-130063714D01*
X111470000Y-130016095D01*
X111422381Y-129920857D01*
X111422381Y-129682761D01*
X111470000Y-129539904D01*
X111422381Y-129206571D02*
X112422381Y-128968476D01*
X111708095Y-128777999D01*
X112422381Y-128587523D01*
X111422381Y-128349428D01*
X112422381Y-127444666D02*
X112422381Y-128016095D01*
X112422381Y-127730381D02*
X111422381Y-127730381D01*
X111565238Y-127825619D01*
X111660476Y-127920857D01*
X111708095Y-128016095D01*
X99734762Y-100782381D02*
X99401428Y-100306190D01*
X99163333Y-100782381D02*
X99163333Y-99782381D01*
X99544286Y-99782381D01*
X99639524Y-99830000D01*
X99687143Y-99877619D01*
X99734762Y-99972857D01*
X99734762Y-100115714D01*
X99687143Y-100210952D01*
X99639524Y-100258571D01*
X99544286Y-100306190D01*
X99163333Y-100306190D01*
X100020476Y-99782381D02*
X100353809Y-100782381D01*
X100687143Y-99782381D01*
X101544286Y-100782381D02*
X100972857Y-100782381D01*
X101258571Y-100782381D02*
X101258571Y-99782381D01*
X101163333Y-99925238D01*
X101068095Y-100020476D01*
X100972857Y-100068095D01*
X106767334Y-104592381D02*
X106434000Y-104116190D01*
X106195905Y-104592381D02*
X106195905Y-103592381D01*
X106576858Y-103592381D01*
X106672096Y-103640000D01*
X106719715Y-103687619D01*
X106767334Y-103782857D01*
X106767334Y-103925714D01*
X106719715Y-104020952D01*
X106672096Y-104068571D01*
X106576858Y-104116190D01*
X106195905Y-104116190D01*
X107624477Y-103925714D02*
X107624477Y-104592381D01*
X107386381Y-103544762D02*
X107148286Y-104259048D01*
X107767334Y-104259048D01*
X112101334Y-104592381D02*
X111768000Y-104116190D01*
X111529905Y-104592381D02*
X111529905Y-103592381D01*
X111910858Y-103592381D01*
X112006096Y-103640000D01*
X112053715Y-103687619D01*
X112101334Y-103782857D01*
X112101334Y-103925714D01*
X112053715Y-104020952D01*
X112006096Y-104068571D01*
X111910858Y-104116190D01*
X111529905Y-104116190D01*
X112434667Y-103592381D02*
X113053715Y-103592381D01*
X112720381Y-103973333D01*
X112863239Y-103973333D01*
X112958477Y-104020952D01*
X113006096Y-104068571D01*
X113053715Y-104163810D01*
X113053715Y-104401905D01*
X113006096Y-104497143D01*
X112958477Y-104544762D01*
X112863239Y-104592381D01*
X112577524Y-104592381D01*
X112482286Y-104544762D01*
X112434667Y-104497143D01*
X106767334Y-101290381D02*
X106434000Y-100814190D01*
X106195905Y-101290381D02*
X106195905Y-100290381D01*
X106576858Y-100290381D01*
X106672096Y-100338000D01*
X106719715Y-100385619D01*
X106767334Y-100480857D01*
X106767334Y-100623714D01*
X106719715Y-100718952D01*
X106672096Y-100766571D01*
X106576858Y-100814190D01*
X106195905Y-100814190D01*
X107148286Y-100385619D02*
X107195905Y-100338000D01*
X107291143Y-100290381D01*
X107529239Y-100290381D01*
X107624477Y-100338000D01*
X107672096Y-100385619D01*
X107719715Y-100480857D01*
X107719715Y-100576095D01*
X107672096Y-100718952D01*
X107100667Y-101290381D01*
X107719715Y-101290381D01*
X100671334Y-111782381D02*
X100338000Y-111306190D01*
X100099905Y-111782381D02*
X100099905Y-110782381D01*
X100480858Y-110782381D01*
X100576096Y-110830000D01*
X100623715Y-110877619D01*
X100671334Y-110972857D01*
X100671334Y-111115714D01*
X100623715Y-111210952D01*
X100576096Y-111258571D01*
X100480858Y-111306190D01*
X100099905Y-111306190D01*
X101623715Y-111782381D02*
X101052286Y-111782381D01*
X101338000Y-111782381D02*
X101338000Y-110782381D01*
X101242762Y-110925238D01*
X101147524Y-111020476D01*
X101052286Y-111068095D01*
X112775619Y-122523238D02*
X112728000Y-122618476D01*
X112632762Y-122713714D01*
X112489905Y-122856571D01*
X112442286Y-122951810D01*
X112442286Y-123047048D01*
X112680381Y-122999429D02*
X112632762Y-123094667D01*
X112537524Y-123189905D01*
X112347048Y-123237524D01*
X112013714Y-123237524D01*
X111823238Y-123189905D01*
X111728000Y-123094667D01*
X111680381Y-122999429D01*
X111680381Y-122808952D01*
X111728000Y-122713714D01*
X111823238Y-122618476D01*
X112013714Y-122570857D01*
X112347048Y-122570857D01*
X112537524Y-122618476D01*
X112632762Y-122713714D01*
X112680381Y-122808952D01*
X112680381Y-122999429D01*
X112680381Y-121618476D02*
X112680381Y-122189905D01*
X112680381Y-121904191D02*
X111680381Y-121904191D01*
X111823238Y-121999429D01*
X111918476Y-122094667D01*
X111966095Y-122189905D01*
X102897381Y-129420857D02*
X102897381Y-129897048D01*
X101897381Y-129897048D01*
X102849762Y-129135143D02*
X102897381Y-128992286D01*
X102897381Y-128754190D01*
X102849762Y-128658952D01*
X102802143Y-128611333D01*
X102706905Y-128563714D01*
X102611667Y-128563714D01*
X102516429Y-128611333D01*
X102468810Y-128658952D01*
X102421190Y-128754190D01*
X102373571Y-128944667D01*
X102325952Y-129039905D01*
X102278333Y-129087524D01*
X102183095Y-129135143D01*
X102087857Y-129135143D01*
X101992619Y-129087524D01*
X101945000Y-129039905D01*
X101897381Y-128944667D01*
X101897381Y-128706571D01*
X101945000Y-128563714D01*
X102897381Y-127611333D02*
X102897381Y-128182762D01*
X102897381Y-127897048D02*
X101897381Y-127897048D01*
X102040238Y-127992286D01*
X102135476Y-128087524D01*
X102183095Y-128182762D01*
X112101334Y-115006381D02*
X111625143Y-115006381D01*
X111625143Y-114006381D01*
X112958477Y-115006381D02*
X112387048Y-115006381D01*
X112672762Y-115006381D02*
X112672762Y-114006381D01*
X112577524Y-114149238D01*
X112482286Y-114244476D01*
X112387048Y-114292095D01*
X103909905Y-116862381D02*
X103909905Y-115862381D01*
X104148000Y-115862381D01*
X104290858Y-115910000D01*
X104386096Y-116005238D01*
X104433715Y-116100476D01*
X104481334Y-116290952D01*
X104481334Y-116433810D01*
X104433715Y-116624286D01*
X104386096Y-116719524D01*
X104290858Y-116814762D01*
X104148000Y-116862381D01*
X103909905Y-116862381D01*
X105433715Y-116862381D02*
X104862286Y-116862381D01*
X105148000Y-116862381D02*
X105148000Y-115862381D01*
X105052762Y-116005238D01*
X104957524Y-116100476D01*
X104862286Y-116148095D01*
X112101334Y-111383143D02*
X112053715Y-111430762D01*
X111910858Y-111478381D01*
X111815620Y-111478381D01*
X111672762Y-111430762D01*
X111577524Y-111335524D01*
X111529905Y-111240286D01*
X111482286Y-111049810D01*
X111482286Y-110906952D01*
X111529905Y-110716476D01*
X111577524Y-110621238D01*
X111672762Y-110526000D01*
X111815620Y-110478381D01*
X111910858Y-110478381D01*
X112053715Y-110526000D01*
X112101334Y-110573619D01*
X112958477Y-110811714D02*
X112958477Y-111478381D01*
X112720381Y-110430762D02*
X112482286Y-111145048D01*
X113101334Y-111145048D01*
X111847334Y-108053143D02*
X111799715Y-108100762D01*
X111656858Y-108148381D01*
X111561620Y-108148381D01*
X111418762Y-108100762D01*
X111323524Y-108005524D01*
X111275905Y-107910286D01*
X111228286Y-107719810D01*
X111228286Y-107576952D01*
X111275905Y-107386476D01*
X111323524Y-107291238D01*
X111418762Y-107196000D01*
X111561620Y-107148381D01*
X111656858Y-107148381D01*
X111799715Y-107196000D01*
X111847334Y-107243619D01*
X112180667Y-107148381D02*
X112799715Y-107148381D01*
X112466381Y-107529333D01*
X112609239Y-107529333D01*
X112704477Y-107576952D01*
X112752096Y-107624571D01*
X112799715Y-107719810D01*
X112799715Y-107957905D01*
X112752096Y-108053143D01*
X112704477Y-108100762D01*
X112609239Y-108148381D01*
X112323524Y-108148381D01*
X112228286Y-108100762D01*
X112180667Y-108053143D01*
X106767334Y-107827143D02*
X106719715Y-107874762D01*
X106576858Y-107922381D01*
X106481620Y-107922381D01*
X106338762Y-107874762D01*
X106243524Y-107779524D01*
X106195905Y-107684286D01*
X106148286Y-107493810D01*
X106148286Y-107350952D01*
X106195905Y-107160476D01*
X106243524Y-107065238D01*
X106338762Y-106970000D01*
X106481620Y-106922381D01*
X106576858Y-106922381D01*
X106719715Y-106970000D01*
X106767334Y-107017619D01*
X107148286Y-107017619D02*
X107195905Y-106970000D01*
X107291143Y-106922381D01*
X107529239Y-106922381D01*
X107624477Y-106970000D01*
X107672096Y-107017619D01*
X107719715Y-107112857D01*
X107719715Y-107208095D01*
X107672096Y-107350952D01*
X107100667Y-107922381D01*
X107719715Y-107922381D01*
X106767334Y-111355143D02*
X106719715Y-111402762D01*
X106576858Y-111450381D01*
X106481620Y-111450381D01*
X106338762Y-111402762D01*
X106243524Y-111307524D01*
X106195905Y-111212286D01*
X106148286Y-111021810D01*
X106148286Y-110878952D01*
X106195905Y-110688476D01*
X106243524Y-110593238D01*
X106338762Y-110498000D01*
X106481620Y-110450381D01*
X106576858Y-110450381D01*
X106719715Y-110498000D01*
X106767334Y-110545619D01*
X107719715Y-111450381D02*
X107148286Y-111450381D01*
X107434000Y-111450381D02*
X107434000Y-110450381D01*
X107338762Y-110593238D01*
X107243524Y-110688476D01*
X107148286Y-110736095D01*
X106767334Y-72747143D02*
X106719715Y-72794762D01*
X106576858Y-72842381D01*
X106481620Y-72842381D01*
X106338762Y-72794762D01*
X106243524Y-72699524D01*
X106195905Y-72604286D01*
X106148286Y-72413810D01*
X106148286Y-72270952D01*
X106195905Y-72080476D01*
X106243524Y-71985238D01*
X106338762Y-71890000D01*
X106481620Y-71842381D01*
X106576858Y-71842381D01*
X106719715Y-71890000D01*
X106767334Y-71937619D01*
X107719715Y-72842381D02*
X107148286Y-72842381D01*
X107434000Y-72842381D02*
X107434000Y-71842381D01*
X107338762Y-71985238D01*
X107243524Y-72080476D01*
X107148286Y-72128095D01*
X106767334Y-69219143D02*
X106719715Y-69266762D01*
X106576858Y-69314381D01*
X106481620Y-69314381D01*
X106338762Y-69266762D01*
X106243524Y-69171524D01*
X106195905Y-69076286D01*
X106148286Y-68885810D01*
X106148286Y-68742952D01*
X106195905Y-68552476D01*
X106243524Y-68457238D01*
X106338762Y-68362000D01*
X106481620Y-68314381D01*
X106576858Y-68314381D01*
X106719715Y-68362000D01*
X106767334Y-68409619D01*
X107148286Y-68409619D02*
X107195905Y-68362000D01*
X107291143Y-68314381D01*
X107529239Y-68314381D01*
X107624477Y-68362000D01*
X107672096Y-68409619D01*
X107719715Y-68504857D01*
X107719715Y-68600095D01*
X107672096Y-68742952D01*
X107100667Y-69314381D01*
X107719715Y-69314381D01*
X111847334Y-69445143D02*
X111799715Y-69492762D01*
X111656858Y-69540381D01*
X111561620Y-69540381D01*
X111418762Y-69492762D01*
X111323524Y-69397524D01*
X111275905Y-69302286D01*
X111228286Y-69111810D01*
X111228286Y-68968952D01*
X111275905Y-68778476D01*
X111323524Y-68683238D01*
X111418762Y-68588000D01*
X111561620Y-68540381D01*
X111656858Y-68540381D01*
X111799715Y-68588000D01*
X111847334Y-68635619D01*
X112180667Y-68540381D02*
X112799715Y-68540381D01*
X112466381Y-68921333D01*
X112609239Y-68921333D01*
X112704477Y-68968952D01*
X112752096Y-69016571D01*
X112799715Y-69111810D01*
X112799715Y-69349905D01*
X112752096Y-69445143D01*
X112704477Y-69492762D01*
X112609239Y-69540381D01*
X112323524Y-69540381D01*
X112228286Y-69492762D01*
X112180667Y-69445143D01*
X112101334Y-72775143D02*
X112053715Y-72822762D01*
X111910858Y-72870381D01*
X111815620Y-72870381D01*
X111672762Y-72822762D01*
X111577524Y-72727524D01*
X111529905Y-72632286D01*
X111482286Y-72441810D01*
X111482286Y-72298952D01*
X111529905Y-72108476D01*
X111577524Y-72013238D01*
X111672762Y-71918000D01*
X111815620Y-71870381D01*
X111910858Y-71870381D01*
X112053715Y-71918000D01*
X112101334Y-71965619D01*
X112958477Y-72203714D02*
X112958477Y-72870381D01*
X112720381Y-71822762D02*
X112482286Y-72537048D01*
X113101334Y-72537048D01*
X103909905Y-78254381D02*
X103909905Y-77254381D01*
X104148000Y-77254381D01*
X104290858Y-77302000D01*
X104386096Y-77397238D01*
X104433715Y-77492476D01*
X104481334Y-77682952D01*
X104481334Y-77825810D01*
X104433715Y-78016286D01*
X104386096Y-78111524D01*
X104290858Y-78206762D01*
X104148000Y-78254381D01*
X103909905Y-78254381D01*
X105433715Y-78254381D02*
X104862286Y-78254381D01*
X105148000Y-78254381D02*
X105148000Y-77254381D01*
X105052762Y-77397238D01*
X104957524Y-77492476D01*
X104862286Y-77540095D01*
X112101334Y-76398381D02*
X111625143Y-76398381D01*
X111625143Y-75398381D01*
X112958477Y-76398381D02*
X112387048Y-76398381D01*
X112672762Y-76398381D02*
X112672762Y-75398381D01*
X112577524Y-75541238D01*
X112482286Y-75636476D01*
X112387048Y-75684095D01*
X102897381Y-90812857D02*
X102897381Y-91289048D01*
X101897381Y-91289048D01*
X102849762Y-90527143D02*
X102897381Y-90384286D01*
X102897381Y-90146190D01*
X102849762Y-90050952D01*
X102802143Y-90003333D01*
X102706905Y-89955714D01*
X102611667Y-89955714D01*
X102516429Y-90003333D01*
X102468810Y-90050952D01*
X102421190Y-90146190D01*
X102373571Y-90336667D01*
X102325952Y-90431905D01*
X102278333Y-90479524D01*
X102183095Y-90527143D01*
X102087857Y-90527143D01*
X101992619Y-90479524D01*
X101945000Y-90431905D01*
X101897381Y-90336667D01*
X101897381Y-90098571D01*
X101945000Y-89955714D01*
X102897381Y-89003333D02*
X102897381Y-89574762D01*
X102897381Y-89289048D02*
X101897381Y-89289048D01*
X102040238Y-89384286D01*
X102135476Y-89479524D01*
X102183095Y-89574762D01*
X112775619Y-83915238D02*
X112728000Y-84010476D01*
X112632762Y-84105714D01*
X112489905Y-84248571D01*
X112442286Y-84343810D01*
X112442286Y-84439048D01*
X112680381Y-84391429D02*
X112632762Y-84486667D01*
X112537524Y-84581905D01*
X112347048Y-84629524D01*
X112013714Y-84629524D01*
X111823238Y-84581905D01*
X111728000Y-84486667D01*
X111680381Y-84391429D01*
X111680381Y-84200952D01*
X111728000Y-84105714D01*
X111823238Y-84010476D01*
X112013714Y-83962857D01*
X112347048Y-83962857D01*
X112537524Y-84010476D01*
X112632762Y-84105714D01*
X112680381Y-84200952D01*
X112680381Y-84391429D01*
X112680381Y-83010476D02*
X112680381Y-83581905D01*
X112680381Y-83296191D02*
X111680381Y-83296191D01*
X111823238Y-83391429D01*
X111918476Y-83486667D01*
X111966095Y-83581905D01*
X100671334Y-73174381D02*
X100338000Y-72698190D01*
X100099905Y-73174381D02*
X100099905Y-72174381D01*
X100480858Y-72174381D01*
X100576096Y-72222000D01*
X100623715Y-72269619D01*
X100671334Y-72364857D01*
X100671334Y-72507714D01*
X100623715Y-72602952D01*
X100576096Y-72650571D01*
X100480858Y-72698190D01*
X100099905Y-72698190D01*
X101623715Y-73174381D02*
X101052286Y-73174381D01*
X101338000Y-73174381D02*
X101338000Y-72174381D01*
X101242762Y-72317238D01*
X101147524Y-72412476D01*
X101052286Y-72460095D01*
X106767334Y-62682381D02*
X106434000Y-62206190D01*
X106195905Y-62682381D02*
X106195905Y-61682381D01*
X106576858Y-61682381D01*
X106672096Y-61730000D01*
X106719715Y-61777619D01*
X106767334Y-61872857D01*
X106767334Y-62015714D01*
X106719715Y-62110952D01*
X106672096Y-62158571D01*
X106576858Y-62206190D01*
X106195905Y-62206190D01*
X107148286Y-61777619D02*
X107195905Y-61730000D01*
X107291143Y-61682381D01*
X107529239Y-61682381D01*
X107624477Y-61730000D01*
X107672096Y-61777619D01*
X107719715Y-61872857D01*
X107719715Y-61968095D01*
X107672096Y-62110952D01*
X107100667Y-62682381D01*
X107719715Y-62682381D01*
X112101334Y-65984381D02*
X111768000Y-65508190D01*
X111529905Y-65984381D02*
X111529905Y-64984381D01*
X111910858Y-64984381D01*
X112006096Y-65032000D01*
X112053715Y-65079619D01*
X112101334Y-65174857D01*
X112101334Y-65317714D01*
X112053715Y-65412952D01*
X112006096Y-65460571D01*
X111910858Y-65508190D01*
X111529905Y-65508190D01*
X112434667Y-64984381D02*
X113053715Y-64984381D01*
X112720381Y-65365333D01*
X112863239Y-65365333D01*
X112958477Y-65412952D01*
X113006096Y-65460571D01*
X113053715Y-65555810D01*
X113053715Y-65793905D01*
X113006096Y-65889143D01*
X112958477Y-65936762D01*
X112863239Y-65984381D01*
X112577524Y-65984381D01*
X112482286Y-65936762D01*
X112434667Y-65889143D01*
X106767334Y-65984381D02*
X106434000Y-65508190D01*
X106195905Y-65984381D02*
X106195905Y-64984381D01*
X106576858Y-64984381D01*
X106672096Y-65032000D01*
X106719715Y-65079619D01*
X106767334Y-65174857D01*
X106767334Y-65317714D01*
X106719715Y-65412952D01*
X106672096Y-65460571D01*
X106576858Y-65508190D01*
X106195905Y-65508190D01*
X107624477Y-65317714D02*
X107624477Y-65984381D01*
X107386381Y-64936762D02*
X107148286Y-65651048D01*
X107767334Y-65651048D01*
X99734762Y-62174381D02*
X99401428Y-61698190D01*
X99163333Y-62174381D02*
X99163333Y-61174381D01*
X99544286Y-61174381D01*
X99639524Y-61222000D01*
X99687143Y-61269619D01*
X99734762Y-61364857D01*
X99734762Y-61507714D01*
X99687143Y-61602952D01*
X99639524Y-61650571D01*
X99544286Y-61698190D01*
X99163333Y-61698190D01*
X100020476Y-61174381D02*
X100353809Y-62174381D01*
X100687143Y-61174381D01*
X101544286Y-62174381D02*
X100972857Y-62174381D01*
X101258571Y-62174381D02*
X101258571Y-61174381D01*
X101163333Y-61317238D01*
X101068095Y-61412476D01*
X100972857Y-61460095D01*
X112374762Y-91503333D02*
X112422381Y-91360476D01*
X112422381Y-91122380D01*
X112374762Y-91027142D01*
X112327143Y-90979523D01*
X112231905Y-90931904D01*
X112136667Y-90931904D01*
X112041429Y-90979523D01*
X111993810Y-91027142D01*
X111946190Y-91122380D01*
X111898571Y-91312857D01*
X111850952Y-91408095D01*
X111803333Y-91455714D01*
X111708095Y-91503333D01*
X111612857Y-91503333D01*
X111517619Y-91455714D01*
X111470000Y-91408095D01*
X111422381Y-91312857D01*
X111422381Y-91074761D01*
X111470000Y-90931904D01*
X111422381Y-90598571D02*
X112422381Y-90360476D01*
X111708095Y-90169999D01*
X112422381Y-89979523D01*
X111422381Y-89741428D01*
X112422381Y-88836666D02*
X112422381Y-89408095D01*
X112422381Y-89122381D02*
X111422381Y-89122381D01*
X111565238Y-89217619D01*
X111660476Y-89312857D01*
X111708095Y-89408095D01*
X97496381Y-70865905D02*
X98305905Y-70865905D01*
X98401143Y-70818286D01*
X98448762Y-70770667D01*
X98496381Y-70675429D01*
X98496381Y-70484952D01*
X98448762Y-70389714D01*
X98401143Y-70342095D01*
X98305905Y-70294476D01*
X97496381Y-70294476D01*
X97591619Y-69865905D02*
X97544000Y-69818286D01*
X97496381Y-69723048D01*
X97496381Y-69484952D01*
X97544000Y-69389714D01*
X97591619Y-69342095D01*
X97686857Y-69294476D01*
X97782095Y-69294476D01*
X97924952Y-69342095D01*
X98496381Y-69913524D01*
X98496381Y-69294476D01*
X123698095Y-75930381D02*
X123698095Y-76739905D01*
X123745714Y-76835143D01*
X123793333Y-76882762D01*
X123888571Y-76930381D01*
X124079048Y-76930381D01*
X124174286Y-76882762D01*
X124221905Y-76835143D01*
X124269524Y-76739905D01*
X124269524Y-75930381D01*
X125269524Y-76930381D02*
X124698095Y-76930381D01*
X124983809Y-76930381D02*
X124983809Y-75930381D01*
X124888571Y-76073238D01*
X124793333Y-76168476D01*
X124698095Y-76216095D01*
X97964667Y-82808381D02*
X97964667Y-83522667D01*
X97917047Y-83665524D01*
X97821809Y-83760762D01*
X97678952Y-83808381D01*
X97583714Y-83808381D01*
X98964667Y-83808381D02*
X98393238Y-83808381D01*
X98678952Y-83808381D02*
X98678952Y-82808381D01*
X98583714Y-82951238D01*
X98488476Y-83046476D01*
X98393238Y-83094095D01*
X101500381Y-60904286D02*
X100500381Y-60904286D01*
X100500381Y-60666191D01*
X100548000Y-60523333D01*
X100643238Y-60428095D01*
X100738476Y-60380476D01*
X100928952Y-60332857D01*
X101071810Y-60332857D01*
X101262286Y-60380476D01*
X101357524Y-60428095D01*
X101452762Y-60523333D01*
X101500381Y-60666191D01*
X101500381Y-60904286D01*
X101452762Y-59951905D02*
X101500381Y-59809048D01*
X101500381Y-59570952D01*
X101452762Y-59475714D01*
X101405143Y-59428095D01*
X101309905Y-59380476D01*
X101214667Y-59380476D01*
X101119429Y-59428095D01*
X101071810Y-59475714D01*
X101024190Y-59570952D01*
X100976571Y-59761429D01*
X100928952Y-59856667D01*
X100881333Y-59904286D01*
X100786095Y-59951905D01*
X100690857Y-59951905D01*
X100595619Y-59904286D01*
X100548000Y-59856667D01*
X100500381Y-59761429D01*
X100500381Y-59523333D01*
X100548000Y-59380476D01*
X101500381Y-58428095D02*
X101500381Y-58999524D01*
X101500381Y-58713810D02*
X100500381Y-58713810D01*
X100643238Y-58809048D01*
X100738476Y-58904286D01*
X100786095Y-58999524D01*
X135175810Y-66956381D02*
X135175810Y-65956381D01*
X135604381Y-66908762D02*
X135747238Y-66956381D01*
X135985334Y-66956381D01*
X136080572Y-66908762D01*
X136128191Y-66861143D01*
X136175810Y-66765905D01*
X136175810Y-66670667D01*
X136128191Y-66575429D01*
X136080572Y-66527810D01*
X135985334Y-66480190D01*
X135794857Y-66432571D01*
X135699619Y-66384952D01*
X135652000Y-66337333D01*
X135604381Y-66242095D01*
X135604381Y-66146857D01*
X135652000Y-66051619D01*
X135699619Y-66004000D01*
X135794857Y-65956381D01*
X136032953Y-65956381D01*
X136175810Y-66004000D01*
X137175810Y-66861143D02*
X137128191Y-66908762D01*
X136985334Y-66956381D01*
X136890096Y-66956381D01*
X136747238Y-66908762D01*
X136652000Y-66813524D01*
X136604381Y-66718286D01*
X136556762Y-66527810D01*
X136556762Y-66384952D01*
X136604381Y-66194476D01*
X136652000Y-66099238D01*
X136747238Y-66004000D01*
X136890096Y-65956381D01*
X136985334Y-65956381D01*
X137128191Y-66004000D01*
X137175810Y-66051619D01*
X137604381Y-66956381D02*
X137604381Y-65956381D01*
X137985334Y-65956381D01*
X138080572Y-66004000D01*
X138128191Y-66051619D01*
X138175810Y-66146857D01*
X138175810Y-66289714D01*
X138128191Y-66384952D01*
X138080572Y-66432571D01*
X137985334Y-66480190D01*
X137604381Y-66480190D01*
M02*
